<svg id="Layer_1" data-name="Layer 1" xmlns="http://www.w3.org/2000/svg" xmlns:xlink="http://www.w3.org/1999/xlink" viewBox="0 0 1110 884"><defs><style>.cls-1{fill:url(#linear-gradient);}</style><linearGradient id="linear-gradient" x1="1359.01" y1="45.3" x2="521.26" y2="551.46" gradientUnits="userSpaceOnUse"><stop offset="0.25" stop-color="#95c8d7"/><stop offset="0.99" stop-color="#4682b4"/></linearGradient></defs><title>bg-bos</title><path class="cls-1" d="M489.71-11.49c-6.69,15.33-13,35-13,35-5.21,16.13-13.39,41.91-16.83,75.06-3.53,34.06-.43,60.18,2.8,87.37.72,6.05,3.24,26.38,9,53,2.46,11.34,10.32,47,23.4,80.48,7.84,20.09,33.35,84.12,94.26,139,29.3,26.41,55,40.2,99,63.79,71.06,38.1,81.08,30.11,136.15,62.83,24.27,14.43,66.57,39.86,107.58,85.69,44.9,50.16,45.77,77.44,86.81,100.74,7.7,4.38,55.45,31.5,90.95,18.27,59.57-22.2,38.75-141.87,62.17-376.07C1194.65,187,1231.05,84.84,1160.56,5.28c-19.28-21.76-37.8-31.95-70.45-49.51C833.38-182.26,518.65-77.84,489.71-11.49Z"/></svg>