<svg id="Layer_1" data-name="Layer 1" xmlns="http://www.w3.org/2000/svg" xmlns:xlink="http://www.w3.org/1999/xlink" viewBox="0 0 225 755"><defs><style>.cls-1{fill:url(#linear-gradient);}</style><linearGradient id="linear-gradient" x1="-80.3" y1="408.97" x2="140.78" y2="232.99" gradientUnits="userSpaceOnUse"><stop offset="0.14" stop-color="#95c8d7"/><stop offset="0.5" stop-color="#77adca"/><stop offset="1" stop-color="#4682b4"/></linearGradient></defs><title>bg</title><path class="cls-1" d="M-2.61,96a290.85,290.85,0,0,1,27.79,24.66A291.19,291.19,0,0,1,53.58,154,120.73,120.73,0,0,1,77,199.76,96.37,96.37,0,0,1,80.6,228c-.41,15.46-4.68,27.49-9.47,41-.76,2.14-3.56,9.92-8.41,20.27a254.65,254.65,0,0,1-19.25,34c-6.9,13.16-6.27,22.26-5,27.55a19,19,0,0,0,.66,2.16c5.06,13.49,16.78,22.69,23,28.36,2.64,2.42,18.08,16.94,21.32,34.92,2.83,15.75-4.6,29.17-10.13,39.17-12.76,23-23.66,21.54-39.71,48.1A141.82,141.82,0,0,0,21.94,528.4c-3.53,9.81-5.92,19.7-8.26,29.4-2.91,12-3.13,15.05-5.67,21.48a81.63,81.63,0,0,1-10.62,19l-27.87-47.88Z"/></svg>