<?xml version="1.0" encoding="iso-8859-1"?>
<!-- Generator: Adobe Illustrator 19.0.0, SVG Export Plug-In . SVG Version: 6.00 Build 0)  -->
<svg version="1.1" id="Capa_1" xmlns="http://www.w3.org/2000/svg" xmlns:xlink="http://www.w3.org/1999/xlink" x="0px" y="0px"
	 viewBox="0 0 477.827 477.827" style="enable-background:new 0 0 477.827 477.827;" xml:space="preserve">
<g>
	<g>
		<path d="M441.537,160.625c1.489-7.981,2.243-16.082,2.253-24.201C443.699,61.019,382.498-0.035,307.093,0.056
			c-57.402,0.069-108.63,36.034-128.194,89.999c-35.029-13.944-74.73,3.148-88.675,38.177c-1.207,3.032-2.195,6.146-2.956,9.319
			c-55.932,8.365-94.492,60.488-86.127,116.42c7.502,50.163,50.596,87.275,101.316,87.254H238.99V170.558
			c0-9.426,7.641-17.067,17.067-17.067c9.426,0,17.067,7.641,17.067,17.067v170.667h102.4
			c56.554-0.053,102.357-45.943,102.303-102.497C477.798,208.625,464.526,180.06,441.537,160.625z"/>
	</g>
</g>
<g>
	<g>
		<path d="M353.07,363.292c-6.614-6.387-17.099-6.387-23.712,0l-56.235,56.201v-78.268H238.99v78.268l-56.201-56.201
			c-6.78-6.548-17.584-6.36-24.132,0.419c-6.388,6.614-6.388,17.099,0,23.713l85.333,85.333c6.656,6.673,17.463,6.687,24.136,0.03
			c0.01-0.01,0.02-0.02,0.031-0.03l85.333-85.333C360.038,380.644,359.85,369.84,353.07,363.292z"/>
	</g>
</g>
<g>
</g>
<g>
</g>
<g>
</g>
<g>
</g>
<g>
</g>
<g>
</g>
<g>
</g>
<g>
</g>
<g>
</g>
<g>
</g>
<g>
</g>
<g>
</g>
<g>
</g>
<g>
</g>
<g>
</g>
</svg>
