<svg xmlns="http://www.w3.org/2000/svg" xmlns:xlink="http://www.w3.org/1999/xlink" viewBox="0 0 1110 884"><defs><style>.cls-1{fill:#d4d3eb;}.cls-2{fill:none;}.cls-3{isolation:isolate;}.cls-4{fill:url(#linear-gradient);}.cls-5{fill:#3f3f92;}.cls-6{clip-path:url(#clip-path);}.cls-7{clip-path:url(#clip-path-2);}.cls-8{clip-path:url(#clip-path-3);}.cls-9{clip-path:url(#clip-path-4);}.cls-10{fill:#ececf4;}.cls-11{fill:#a8ceef;}.cls-12{fill:#2773ad;}.cls-13{fill:#d2ebfb;}.cls-14,.cls-15{fill:#4091cf;}.cls-14{opacity:0.5;}.cls-16,.cls-17,.cls-22{fill:#fff;}.cls-17{opacity:0.3;}.cls-18{fill:#76b5e4;}.cls-19{fill:#0e4c92;}.cls-20{fill:#1c2b4d;}.cls-21{fill:#529fd7;}.cls-22{mix-blend-mode:screen;}.cls-23{fill:#f2f2f2;}.cls-24{fill:#3a6dac;}.cls-25{fill:#1a3e78;}.cls-26{fill:#5793ce;}.cls-27{fill:#d5ecfb;}.cls-28{clip-path:url(#clip-path-5);}.cls-29{fill:#1e3867;}.cls-30{mix-blend-mode:multiply;}.cls-31{fill:#28b5b4;}.cls-32{fill:#4682b4;}.cls-33{clip-path:url(#clip-path-6);}</style><linearGradient id="linear-gradient" x1="1359.01" y1="45.3" x2="521.26" y2="551.46" gradientUnits="userSpaceOnUse"><stop offset="0.25" stop-color="#95c8d7"/><stop offset="0.99" stop-color="#4682b4"/></linearGradient><clipPath id="clip-path"><path class="cls-1" d="M763.62,203.71l-33.94,19.72c11.33-6.59,27-5.66,44.34,4.34a94.47,94.47,0,0,1,10.84,7.35l33.94-19.73A93.1,93.1,0,0,0,808,208.05C790.64,198.05,775,197.12,763.62,203.71Z"/></clipPath><clipPath id="clip-path-2"><path class="cls-1" d="M843.18,180l-33.94,19.73c17-9.88,40.53-8.49,66.5,6.51l33.94-19.73C883.71,171.56,860.18,170.17,843.18,180Z"/></clipPath><clipPath id="clip-path-3"><path class="cls-1" d="M966.17,339.8l33.94-19.73c-10.05-52.51-46.68-108.26-90.43-133.52l-33.94,19.73C919.49,231.53,956.12,287.28,966.17,339.8Z"/></clipPath><clipPath id="clip-path-4"><path class="cls-1" d="M1021,492.54l33.94-19.72c11.19-6.5,18.13-20.33,18.18-40,.11-39.55-27.7-87.72-62.12-107.6a73.6,73.6,0,0,0-10.84-5.17L966.17,339.8A72.6,72.6,0,0,1,977,345c34.42,19.87,62.23,68,62.12,107.6C1039.07,472.21,1032.14,486,1021,492.54Z"/></clipPath><clipPath id="clip-path-5"><polygon class="cls-2" points="673.41 639.1 691.32 599.41 752.73 641.7 734.82 681.38 673.41 639.1"/></clipPath><clipPath id="clip-path-6"><polygon class="cls-2" points="806.14 363.17 806.55 218.89 932.1 291.38 931.69 435.65 806.14 363.17"/></clipPath></defs><title>hero-bg</title><g class="cls-3"><g id="Layer_1" data-name="Layer 1"><path class="cls-4" d="M489.71-11.49c-6.69,15.33-13,35-13,35-5.21,16.13-13.39,41.91-16.83,75.06-3.53,34.06-.43,60.18,2.8,87.37.72,6.05,3.24,26.38,9,53,2.46,11.34,10.32,47,23.4,80.48,7.84,20.09,33.35,84.12,94.26,139,29.3,26.41,55,40.2,99,63.79,71.06,38.1,81.08,30.11,136.15,62.83,24.27,14.43,66.57,39.86,107.58,85.69,44.9,50.16,45.77,77.44,86.81,100.74,7.7,4.38,55.45,31.5,90.95,18.27,59.57-22.2,38.75-141.87,62.17-376.07C1194.65,187,1231.05,84.84,1160.56,5.28c-19.28-21.76-37.8-31.95-70.45-49.51C833.38-182.26,518.65-77.84,489.71-11.49Z"/><path class="cls-5" d="M878,443.64a1.29,1.29,0,0,0,1.29-1.29v-4.54a1.3,1.3,0,0,0-2.59,0v4.54A1.3,1.3,0,0,0,878,443.64Z"/><path class="cls-5" d="M878,472.76a1.3,1.3,0,0,0,1.29-1.3v-7.28a1.3,1.3,0,0,0-2.59,0v7.28A1.3,1.3,0,0,0,878,472.76Zm0-14.56a1.3,1.3,0,0,0,1.29-1.3v-7.28a1.3,1.3,0,0,0-2.59,0v7.28A1.3,1.3,0,0,0,878,458.2Z"/><path class="cls-5" d="M882,486.73a1.3,1.3,0,0,0,.62-2.44l-3.32-1.78v-3.76a1.3,1.3,0,1,0-2.59,0v4.53a1.3,1.3,0,0,0,.69,1.14l4,2.15A1.21,1.21,0,0,0,882,486.73Z"/><path class="cls-5" d="M970.8,534.56a1.28,1.28,0,0,0,1.14-.68,1.29,1.29,0,0,0-.53-1.75l-7.4-4a1.29,1.29,0,0,0-1.22,2.28l7.4,4A1.31,1.31,0,0,0,970.8,534.56Zm-14.8-8a1.3,1.3,0,0,0,.61-2.44l-7.4-4a1.29,1.29,0,0,0-1.75.52,1.3,1.3,0,0,0,.53,1.76l7.4,4A1.31,1.31,0,0,0,956,526.59Zm-14.8-8a1.3,1.3,0,0,0,.61-2.44l-7.39-4a1.3,1.3,0,0,0-1.23,2.29l7.4,4A1.21,1.21,0,0,0,941.2,518.62Zm-14.8-8a1.29,1.29,0,0,0,.62-2.43l-7.4-4a1.3,1.3,0,1,0-1.23,2.28l7.4,4A1.31,1.31,0,0,0,926.4,510.64Zm-14.8-8a1.29,1.29,0,0,0,.62-2.43l-7.4-4a1.3,1.3,0,1,0-1.23,2.28l7.4,4A1.31,1.31,0,0,0,911.6,502.67Zm-14.8-8a1.3,1.3,0,0,0,.62-2.44l-7.4-4a1.3,1.3,0,1,0-1.23,2.28l7.4,4A1.21,1.21,0,0,0,896.8,494.7Z"/><path class="cls-5" d="M982.19,545.23a1.3,1.3,0,0,0,1.3-1.29V539.4a1.31,1.31,0,0,0-.68-1.14l-4-2.15a1.3,1.3,0,0,0-1.23,2.28l3.32,1.79v3.76A1.29,1.29,0,0,0,982.19,545.23Z"/><path class="cls-5" d="M982.19,709.33a1.3,1.3,0,0,0,1.3-1.3v-9.12a1.3,1.3,0,0,0-2.59,0V708A1.3,1.3,0,0,0,982.19,709.33Zm0-18.24a1.3,1.3,0,0,0,1.3-1.29v-9.12a1.3,1.3,0,0,0-2.59,0v9.12A1.29,1.29,0,0,0,982.19,691.09Zm0-18.23a1.3,1.3,0,0,0,1.3-1.29v-9.12a1.3,1.3,0,1,0-2.59,0v9.12A1.29,1.29,0,0,0,982.19,672.86Zm0-18.23a1.3,1.3,0,0,0,1.3-1.3v-9.11a1.3,1.3,0,1,0-2.59,0v9.11A1.3,1.3,0,0,0,982.19,654.63Zm0-18.23a1.3,1.3,0,0,0,1.3-1.3V626a1.3,1.3,0,0,0-2.59,0v9.12A1.3,1.3,0,0,0,982.19,636.4Zm0-18.24a1.3,1.3,0,0,0,1.3-1.29v-9.12a1.3,1.3,0,0,0-2.59,0v9.12A1.29,1.29,0,0,0,982.19,618.16Zm0-18.23a1.3,1.3,0,0,0,1.3-1.29v-9.12a1.3,1.3,0,1,0-2.59,0v9.12A1.29,1.29,0,0,0,982.19,599.93Zm0-18.23a1.3,1.3,0,0,0,1.3-1.3v-9.11a1.3,1.3,0,1,0-2.59,0v9.11A1.3,1.3,0,0,0,982.19,581.7Zm0-18.23a1.3,1.3,0,0,0,1.3-1.3v-9.12a1.3,1.3,0,0,0-2.59,0v9.12A1.3,1.3,0,0,0,982.19,563.47Z"/><path class="cls-5" d="M982.19,723a1.28,1.28,0,0,0,.66-.18,1.3,1.3,0,0,0,.64-1.12v-4.53a1.3,1.3,0,1,0-2.59,0v2.33l-2-1.13a1.3,1.3,0,1,0-1.25,2.27l4,2.2A1.44,1.44,0,0,0,982.19,723Z"/><path class="cls-5" d="M970.08,716.27a1.3,1.3,0,0,0,.63-2.43l-8.15-4.51a1.3,1.3,0,1,0-1.25,2.27l8.14,4.51A1.31,1.31,0,0,0,970.08,716.27Zm-16.29-9a1.3,1.3,0,0,0,.63-2.43l-8.14-4.51a1.29,1.29,0,1,0-1.26,2.26l8.14,4.51A1.22,1.22,0,0,0,953.79,707.25Zm-16.29-9a1.31,1.31,0,0,0,1.14-.66,1.3,1.3,0,0,0-.51-1.76L930,691.29a1.29,1.29,0,0,0-1.26,2.26l8.15,4.51A1.25,1.25,0,0,0,937.5,698.22Zm-16.29-9a1.3,1.3,0,0,0,.63-2.43l-8.14-4.51a1.3,1.3,0,0,0-1.26,2.27l8.15,4.51A1.27,1.27,0,0,0,921.21,689.2Zm-16.29-9a1.3,1.3,0,0,0,.63-2.43l-8.14-4.51a1.3,1.3,0,0,0-1.26,2.27L904.3,680A1.27,1.27,0,0,0,904.92,680.18Zm-16.28-9a1.3,1.3,0,0,0,.63-2.43l-8.15-4.51a1.3,1.3,0,1,0-1.25,2.27L888,671A1.28,1.28,0,0,0,888.64,671.16Zm-16.29-9a1.3,1.3,0,0,0,.63-2.43l-8.15-4.51a1.29,1.29,0,1,0-1.25,2.26l8.14,4.52A1.31,1.31,0,0,0,872.35,662.14Z"/><path class="cls-5" d="M856.06,653.12a1.3,1.3,0,0,0,.63-2.43l-4-2.2a1.3,1.3,0,1,0-1.25,2.27l4,2.19A1.32,1.32,0,0,0,856.06,653.12Z"/><polygon class="cls-5" points="852.34 666.27 963.84 728.03 963.84 548.72 859.66 492.6 859.66 410.13 862.25 410.13 862.25 491.05 966.43 547.18 966.43 732.42 852.34 669.24 852.34 666.27"/><polygon class="cls-5" points="1000.51 717.05 1000.51 531.8 896.33 475.68 896.33 394.75 893.74 394.75 893.74 477.23 997.92 533.35 997.92 712.65 855.33 633.67 854.07 635.94 1000.51 717.05"/><g class="cls-3"><path class="cls-1" d="M763.62,203.71l-33.94,19.72c11.33-6.59,27-5.66,44.34,4.34a94.47,94.47,0,0,1,10.84,7.35l33.94-19.73A93.1,93.1,0,0,0,808,208.05C790.64,198.05,775,197.12,763.62,203.71Z"/><g class="cls-6"><g class="cls-3"><path class="cls-1" d="M784.86,235.12l33.94-19.73A93.1,93.1,0,0,0,808,208.05a65,65,0,0,0-19-7.57l-34,19.72a65.22,65.22,0,0,1,19,7.57,94.47,94.47,0,0,1,10.84,7.35Z"/><path class="cls-1" d="M755.05,220.2l34-19.72c-9.2-1.94-17.47-1-24.28,2.61l-33.94,19.73c6.81-3.58,15.08-4.55,24.27-2.62Z"/><path class="cls-1" d="M730.78,222.82l33.94-19.73c-.37.2-.74.4-1.1.62l-33.94,19.72c.36-.21.73-.41,1.1-.61Z"/></g></g><path class="cls-1" d="M843.18,180l-33.94,19.73c17-9.88,40.53-8.49,66.5,6.51l33.94-19.73C883.71,171.56,860.18,170.17,843.18,180Z"/><g class="cls-7"><g class="cls-3"><path class="cls-1" d="M875.74,206.28l33.94-19.73a97.79,97.79,0,0,0-28.41-11.34l-33.94,19.72a97.55,97.55,0,0,1,28.41,11.35Z"/><path class="cls-1" d="M847.33,194.93l33.94-19.72c-13.8-2.91-26.22-1.45-36.43,3.92L810.9,198.85c10.21-5.36,22.63-6.83,36.43-3.92Z"/><path class="cls-1" d="M810.9,198.85l33.94-19.72c-.56.29-1.11.6-1.66.91l-33.94,19.73c.55-.32,1.1-.62,1.66-.92Z"/></g></g><path class="cls-1" d="M966.17,339.8l33.94-19.73c-10.05-52.51-46.68-108.26-90.43-133.52l-33.94,19.73C919.49,231.53,956.12,287.28,966.17,339.8Z"/><g class="cls-8"><g class="cls-3"><path class="cls-1" d="M966.17,339.8l33.94-19.73a197.93,197.93,0,0,0-13.72-42.92l-33.94,19.73a197.58,197.58,0,0,1,13.72,42.92Z"/><path class="cls-1" d="M952.45,296.88l33.94-19.73a226.78,226.78,0,0,0-31.43-51L921,245.88a226.62,226.62,0,0,1,31.43,51Z"/><path class="cls-1" d="M921,245.88,955,226.16c-13.4-16.32-28.84-30.11-45.28-39.61l-33.94,19.73c16.44,9.49,31.88,23.29,45.28,39.6Z"/></g></g><path class="cls-1" d="M1021,492.54l33.94-19.72c11.19-6.5,18.13-20.33,18.18-40,.11-39.55-27.7-87.72-62.12-107.6a73.6,73.6,0,0,0-10.84-5.17L966.17,339.8A72.6,72.6,0,0,1,977,345c34.42,19.87,62.23,68,62.12,107.6C1039.07,472.21,1032.14,486,1021,492.54Z"/><g class="cls-9"><g class="cls-3"><path class="cls-1" d="M1021,492.54l33.94-19.72c11.19-6.5,18.13-20.33,18.18-40,0-15.15-4-31.57-11-47.18l-33.94,19.72c7,15.61,11,32,11,47.19-.06,19.64-7,33.47-18.18,40Z"/><path class="cls-1" d="M1028.16,405.38l33.94-19.72a150.84,150.84,0,0,0-21-34l-33.94,19.73a151,151,0,0,1,21,34Z"/><path class="cls-1" d="M1007.19,371.37l33.94-19.73c-8.93-10.87-19.22-20.07-30.18-26.4a73.6,73.6,0,0,0-10.84-5.17L966.17,339.8A72.6,72.6,0,0,1,977,345c11,6.33,21.25,15.52,30.18,26.4Z"/></g></g><path class="cls-10" d="M875.74,206.28C832,181,795.17,194.36,784.86,235.12A94.47,94.47,0,0,0,774,227.77c-34.42-19.87-62.41-3.92-62.52,35.64-.11,37.06,24.3,81.68,55.69,103.51L976.6,488.2c34.43,19.87,62.42,3.92,62.53-35.63S1011.43,364.84,977,345a72.6,72.6,0,0,0-10.84-5.17C956.12,287.28,919.49,231.53,875.74,206.28Z"/></g><polygon class="cls-5" points="493.25 603.95 493.56 603.77 596.31 544.25 595.69 543.18 493.25 602.52 325.52 505.41 449.44 433.86 448.82 432.79 323.05 505.41 493.25 603.95"/><rect class="cls-5" x="572.82" y="542.13" width="2.47" height="1.23" transform="translate(-194.31 359.1) rotate(-29.95)"/><path class="cls-5" d="M472.38,602l4.21-2.43-.62-1.06-4.2,2.42Zm8.41-4.85,4.21-2.42-.62-1.07-4.2,2.42Zm8.41-4.84,4.21-2.42-.62-1.07-4.2,2.42Zm8.41-4.85,4.21-2.42L501.2,584,497,586.43Zm8.41-4.84,4.21-2.42-.62-1.07-4.21,2.42Zm8.41-4.85,4.2-2.42-.61-1.07-4.21,2.43Zm8.41-4.84,4.2-2.42-.61-1.07-4.21,2.42Zm8.41-4.84,4.2-2.43-.61-1.06-4.21,2.42Zm8.41-4.85,4.2-2.42-.61-1.07L539,562.2Zm8.41-4.84,4.2-2.43-.61-1.06-4.21,2.42Zm8.41-4.85,4.2-2.42-.61-1.07-4.21,2.42Zm8.41-4.84,4.2-2.42-.62-1.07-4.2,2.42Z"/><polygon class="cls-5" points="465.73 605.86 468.18 604.45 467.56 603.38 465.73 604.43 463.9 603.38 463.29 604.45 465.73 605.86"/><path class="cls-5" d="M459,602l.61-1.07-4.33-2.5-.62,1.06Zm-8.67-5,.62-1.07-4.34-2.5-.61,1.07Zm-8.67-5,.62-1.07-4.33-2.5-.62,1.07Zm-8.66-5,.62-1.07-4.34-2.5-.61,1.06Zm-8.67-5,.62-1.07-4.33-2.5-.62,1.07Zm-8.66-5,.61-1.07-4.33-2.5-.62,1.07Zm-8.67-5,.62-1.07-4.33-2.5-.62,1.06Zm-8.66-5,.61-1.07-4.33-2.5-.62,1.07Zm-8.67-5,.62-1.07-4.34-2.5-.61,1.07Zm-8.67-5,.62-1.07-4.33-2.5-.62,1.07Zm-8.66-5,.62-1.06-4.34-2.51-.61,1.07Zm-8.67-5,.62-1.07-4.33-2.5-.62,1.07Zm-8.66-5,.61-1.07-4.33-2.5-.62,1.07Zm-8.67-5,.62-1.06-4.34-2.51L342,534.4Zm-8.67-5,.62-1.07-4.33-2.5-.62,1.07Zm-8.66-5,.62-1.07-4.34-2.5-.61,1.07Zm-8.67-5,.62-1.06-4.33-2.51-.62,1.07Zm-8.66-5,.61-1.07-4.33-2.5-.62,1.07Zm-8.67-5,.62-1.07-4.34-2.5-.61,1.07Z"/><polygon class="cls-5" points="294.31 506.88 294.92 505.82 293.7 505.11 294.91 504.39 294.29 503.33 291.25 505.12 294.31 506.88"/><path class="cls-5" d="M299.28,501.81l4.36-2.58-.63-1.06-4.36,2.58Zm8.72-5.16,4.36-2.58-.63-1.06-4.36,2.58Zm8.72-5.16,4.36-2.58-.63-1.06-4.36,2.58Zm8.73-5.16,4.36-2.59-.63-1.06-4.36,2.58Zm8.72-5.17,4.36-2.58-.63-1.06-4.36,2.58Zm8.72-5.16,4.36-2.58-.63-1.06-4.36,2.58Zm8.72-5.16,4.36-2.58-.62-1.06L351,469.78Zm8.73-5.16,4.36-2.58-.63-1.06-4.36,2.58Zm8.72-5.16,4.36-2.58-.63-1.07-4.36,2.59Zm8.72-5.17,4.36-2.58-.63-1.06-4.36,2.58Zm8.72-5.16,4.37-2.58-.63-1.06-4.36,2.58Zm8.73-5.16,4.36-2.58-.63-1.06L394.6,444Zm8.72-5.16,4.36-2.58-.63-1.06-4.36,2.58Zm8.72-5.16,4.36-2.58-.62-1.06L412,433.65Zm8.73-5.16,4.36-2.58-.63-1.07-4.36,2.59Z"/><rect class="cls-5" x="429.63" y="422.61" width="2.47" height="1.23" transform="translate(-155.51 278.55) rotate(-30.63)"/><rect class="cls-5" x="638.06" y="537.19" width="2.47" height="1.23" transform="translate(-184.63 399.63) rotate(-30.55)"/><path class="cls-5" d="M530.3,602.87l4.16-2.46-.62-1.06-4.16,2.46Zm8.33-4.91,4.16-2.46-.63-1.06L538,596.89ZM547,593l4.17-2.46-.63-1.06L546.33,592Zm8.33-4.91,4.17-2.46-.63-1.06-4.16,2.45Zm8.33-4.92,4.16-2.46-.62-1.06L563,582.15Zm8.32-4.92,4.17-2.45-.63-1.07-4.16,2.46Zm8.33-4.91,4.16-2.46-.62-1.06-4.17,2.46Zm8.33-4.92,4.16-2.45-.63-1.07L588,567.4Zm8.32-4.91,4.17-2.46-.63-1.06-4.16,2.46Zm8.33-4.92,4.16-2.46-.62-1.06-4.17,2.46Zm8.33-4.91,4.16-2.46-.63-1.06-4.16,2.45Zm8.32-4.92,4.17-2.46-.63-1.06-4.16,2.46Zm8.33-4.91,4.16-2.46-.62-1.06-4.17,2.45Z"/><polygon class="cls-5" points="523.7 606.77 526.14 605.33 525.51 604.27 523.7 605.34 521.89 604.27 521.26 605.33 523.7 606.77"/><path class="cls-5" d="M517.09,602.86l.63-1.06-4.17-2.47-.63,1.06Zm-8.34-4.93.63-1.07-4.17-2.46-.63,1.06ZM500.41,593l.63-1.06-4.17-2.47-.63,1.06Zm-8.34-4.93.63-1.06-4.17-2.47-.63,1.06Zm-8.34-4.94.63-1.06-4.17-2.47-.63,1.06Zm-8.34-4.93.63-1.06-4.17-2.47-.63,1.06Zm-8.34-4.94.63-1.06-4.17-2.47-.63,1.07Zm-8.34-4.93.62-1.06-4.17-2.47-.63,1.06Zm-8.35-4.94.63-1.06-4.17-2.46-.63,1.06ZM442,558.45l.63-1.06-4.17-2.47-.63,1.06Zm-8.34-4.93.63-1.07L430.14,550l-.63,1.06Zm-8.34-4.94.63-1.06-4.17-2.47-.63,1.06ZM417,543.65l.63-1.06-4.17-2.47-.63,1.06Zm-8.34-4.94.63-1.06-4.17-2.47-.63,1.06Zm-8.34-4.93.63-1.06-4.17-2.47-.63,1.06ZM392,528.84l.63-1.06-4.18-2.46-.62,1.06Zm-8.35-4.93.63-1.06-4.17-2.47-.63,1.06ZM375.29,519l.63-1.06-4.17-2.46-.63,1.06ZM367,514l.63-1.06-4.17-2.47-.63,1.06Zm-8.34-4.93.63-1.07-4.17-2.46-.63,1.06Z"/><polygon class="cls-5" points="350.27 504.17 350.9 503.11 349.69 502.4 350.91 501.7 350.3 500.63 347.23 502.37 350.27 504.17"/><path class="cls-5" d="M355.27,499.23l4.35-2.47-.61-1.07-4.35,2.47Zm8.71-4.94,4.36-2.47-.61-1.08-4.36,2.47Zm8.71-5,4.36-2.47-.61-1.07-4.36,2.47Zm8.72-4.94,4.35-2.47-.61-1.08-4.35,2.48Zm8.71-4.95,4.35-2.47-.61-1.07-4.35,2.47Zm8.71-4.94,4.36-2.47-.61-1.07-4.36,2.47Zm8.71-4.94,4.36-2.48-.61-1.07-4.36,2.47Zm8.72-4.95,4.35-2.47-.61-1.07-4.35,2.47Zm8.71-4.94,4.35-2.48-.6-1.07-4.36,2.47Zm8.71-4.95,4.36-2.47-.61-1.07-4.36,2.47Zm8.71-4.94,4.36-2.47-.61-1.08-4.36,2.48Zm8.72-5,4.35-2.47-.61-1.07-4.35,2.47Zm8.71-4.94,4.36-2.47-.61-1.08-4.36,2.48Zm8.71-4.95,4.36-2.47-.61-1.07-4.36,2.47Zm8.71-4.94,4.36-2.47-.61-1.07-4.36,2.47Zm8.72-4.94,4.35-2.48-.61-1.07L485.35,424Zm8.71-4.95,4.36-2.47-.61-1.07-4.36,2.47Zm8.71-4.94,4.36-2.47-.61-1.08-4.36,2.48Z"/><rect class="cls-5" x="511.63" y="408.47" width="2.47" height="1.23" transform="translate(-135.09 306.45) rotate(-29.58)"/><path class="cls-11" d="M724.81,754.94a1.08,1.08,0,0,1,0-2.15,41.69,41.69,0,0,0,4.16-.36,1.07,1.07,0,1,1,.29,2.13c-1.45.2-2.92.32-4.37.38Zm-6.41-.27h-.14a36.26,36.26,0,0,1-4.34-.81,1.08,1.08,0,0,1-.77-1.31,1.06,1.06,0,0,1,1.3-.77,35.58,35.58,0,0,0,4.08.76,1.07,1.07,0,0,1-.13,2.14Zm17-1.43a1.08,1.08,0,0,1-1-.77,1.07,1.07,0,0,1,.73-1.33,36.69,36.69,0,0,0,3.91-1.4,1.08,1.08,0,0,1,.84,2,40.44,40.44,0,0,1-4.15,1.47A1,1,0,0,1,735.35,753.24Zm-27.15-1.71a.93.93,0,0,1-.5-.14l.53-.93-.59.9-3.74-2.16a1.07,1.07,0,0,1,1.07-1.86l3.71,2.14a1.11,1.11,0,0,1,.44,1.49A1.07,1.07,0,0,1,708.2,751.53Zm36.86-2.71a1.07,1.07,0,0,1-.54-2l3.71-2.14a1.08,1.08,0,0,1,1.08,1.86l-3.71,2.14A1.06,1.06,0,0,1,745.06,748.82Zm-46.18-2.69a1,1,0,0,1-.54-.14l-3.71-2.14A1.07,1.07,0,0,1,695.7,742l3.71,2.14a1.07,1.07,0,0,1-.53,2Zm55.45-2.66a1.07,1.07,0,0,1-.54-2l3.71-2.15a1.08,1.08,0,0,1,1.08,1.87l-3.71,2.14A1.06,1.06,0,0,1,754.33,743.47Zm-64.72-2.69a1,1,0,0,1-.54-.14l-3.71-2.14A1.07,1.07,0,0,1,685,737a1,1,0,0,1,1.46-.39l3.71,2.14a1.07,1.07,0,0,1-.53,2Zm74-2.66a1.07,1.07,0,0,1-.93-.54,1.08,1.08,0,0,1,.39-1.47l3.71-2.14a1.08,1.08,0,0,1,1.47.4,1.06,1.06,0,0,1-.39,1.46L764.14,738A1.08,1.08,0,0,1,763.6,738.12Zm-83.26-2.69a1,1,0,0,1-.54-.15l-3.71-2.14a1.07,1.07,0,0,1,1.07-1.86l3.71,2.14a1.08,1.08,0,0,1,.4,1.47A1.07,1.07,0,0,1,680.34,735.43Zm92.53-2.66a1.08,1.08,0,0,1-.54-2l3.71-2.14a1.08,1.08,0,1,1,1.08,1.86l-3.71,2.14A1.08,1.08,0,0,1,772.87,732.77Zm-101.81-2.69a1,1,0,0,1-.53-.15l-3.71-2.14a1.08,1.08,0,0,1,1.08-1.86l3.7,2.14a1.08,1.08,0,0,1-.54,2Zm111.08-2.67a1.07,1.07,0,0,1-.54-2l3.71-2.14a1.08,1.08,0,1,1,1.08,1.86l-3.71,2.14A1.06,1.06,0,0,1,782.14,727.41Zm-120.35-2.69a1,1,0,0,1-.53-.14l-3.71-2.14a1.08,1.08,0,0,1,1.08-1.86l3.7,2.14a1.07,1.07,0,0,1-.54,2Zm129.62-2.66a1.07,1.07,0,0,1-.54-2l3.71-2.14a1.07,1.07,0,0,1,1.47.39,1.08,1.08,0,0,1-.39,1.47L792,721.92A1.06,1.06,0,0,1,791.41,722.06Zm-138.89-2.69a1,1,0,0,1-.53-.14l-3.71-2.14a1.07,1.07,0,0,1-.39-1.47,1.06,1.06,0,0,1,1.46-.39l3.71,2.14a1.08,1.08,0,0,1,.4,1.47A1.09,1.09,0,0,1,652.52,719.37Zm148.16-2.66a1.07,1.07,0,0,1-.54-2l3.71-2.14a1.06,1.06,0,0,1,1.47.39,1.08,1.08,0,0,1-.39,1.47l-3.71,2.14A1.17,1.17,0,0,1,800.68,716.71ZM643.26,714a1.14,1.14,0,0,1-.54-.14L639,711.74a1.07,1.07,0,0,1-.39-1.47,1.06,1.06,0,0,1,1.46-.4l3.71,2.14a1.08,1.08,0,0,1,.4,1.47A1.07,1.07,0,0,1,643.26,714ZM810,711.36a1.07,1.07,0,0,1-.93-.54,1.08,1.08,0,0,1,.39-1.47l3.71-2.14a1.08,1.08,0,0,1,1.08,1.86l-3.71,2.14A1.08,1.08,0,0,1,810,711.36Zm-176-2.69a1,1,0,0,1-.54-.15l-3.71-2.14a1.07,1.07,0,0,1,1.07-1.86l3.71,2.14a1.08,1.08,0,0,1-.53,2ZM819.22,706a1.09,1.09,0,0,1-.93-.54,1.08,1.08,0,0,1,.39-1.47l3.71-2.14a1.08,1.08,0,0,1,1.08,1.86l-3.71,2.14A1.08,1.08,0,0,1,819.22,706Zm-194.5-2.69a1,1,0,0,1-.54-.15L620.47,701a1.07,1.07,0,0,1,1.07-1.86l3.71,2.14a1.08,1.08,0,0,1-.53,2Zm203.77-2.66a1.09,1.09,0,0,1-.93-.54,1.07,1.07,0,0,1,.4-1.47l3.7-2.14a1.08,1.08,0,0,1,1.08,1.86L829,700.51A1,1,0,0,1,828.49,700.66Zm-213-2.69a1,1,0,0,1-.54-.15l-3.71-2.14a1.07,1.07,0,0,1,1.07-1.86L616,696a1.08,1.08,0,0,1-.53,2Zm222.31-2.67a1.07,1.07,0,0,1-.54-2l3.71-2.14A1.08,1.08,0,0,1,842,693l-3.71,2.14A1,1,0,0,1,837.76,695.3Zm-231.59-2.69a1,1,0,0,1-.53-.14l-3.71-2.14a1.07,1.07,0,0,1-.39-1.47,1.06,1.06,0,0,1,1.46-.39l3.71,2.14a1.07,1.07,0,0,1-.54,2ZM847,690a1.07,1.07,0,0,1-.54-2l3.71-2.15a1.08,1.08,0,0,1,1.47.4,1.06,1.06,0,0,1-.39,1.46l-3.71,2.15A1.06,1.06,0,0,1,847,690ZM596.9,687.26a1.13,1.13,0,0,1-.53-.14L592.66,685a1.06,1.06,0,0,1-.39-1.46,1.08,1.08,0,0,1,1.47-.4l3.7,2.15a1.07,1.07,0,0,1-.54,2Zm259.4-2.66a1.07,1.07,0,0,1-.93-.54,1.08,1.08,0,0,1,.39-1.47l3.71-2.14a1.08,1.08,0,0,1,1.08,1.86l-3.71,2.14A1.08,1.08,0,0,1,856.3,684.6Zm-268.67-2.69a1,1,0,0,1-.53-.15l-3.71-2.14a1.07,1.07,0,0,1,1.07-1.86l3.71,2.14a1.08,1.08,0,0,1-.54,2Zm277.94-2.66a1.08,1.08,0,0,1-.54-2l3.71-2.14a1.08,1.08,0,0,1,1.08,1.86l-3.71,2.14A1.08,1.08,0,0,1,865.57,679.25Zm-287.21-2.69a1,1,0,0,1-.53-.15l-3.71-2.14a1.07,1.07,0,0,1,1.07-1.86l3.71,2.14a1.08,1.08,0,0,1-.54,2Zm296.29-2.95a1.08,1.08,0,0,1-.69-1.9,16.27,16.27,0,0,0,2.76-2.91,1.07,1.07,0,0,1,1.74,1.26,18.46,18.46,0,0,1-3.12,3.3A1.12,1.12,0,0,1,874.65,673.61ZM569.09,671.2a1,1,0,0,1-.53-.14l-3.71-2.14a1.07,1.07,0,0,1,1.07-1.86l3.71,2.14a1.07,1.07,0,0,1-.54,2Zm-9.26-5.35a1,1,0,0,1-.54-.14l-3.71-2.14a1.07,1.07,0,0,1-.39-1.47,1.06,1.06,0,0,1,1.46-.39l3.71,2.14a1.08,1.08,0,0,1,.4,1.47A1.09,1.09,0,0,1,559.83,665.85Zm319.83-1.3a1.08,1.08,0,0,1-1.07-1.06,7.16,7.16,0,0,0-1-3.55,1.08,1.08,0,0,1,1.86-1.08,9.38,9.38,0,0,1,1.31,4.59,1.08,1.08,0,0,1-1.06,1.1Zm-329.11-4a1,1,0,0,1-.53-.15l-3.71-2.13a1.08,1.08,0,0,1,1.07-1.87l3.71,2.14a1.07,1.07,0,0,1,.39,1.47A1.05,1.05,0,0,1,550.55,660.5Zm323.35-4.41a1,1,0,0,1-.57-.17l-3.67-2.12a1.07,1.07,0,0,1,1.07-1.86l3.75,2.17a1.07,1.07,0,0,1,.33,1.48A1,1,0,0,1,873.9,656.09Zm-332.62-.94a1,1,0,0,1-.53-.15L537,652.86a1.07,1.07,0,0,1,1.07-1.86l3.71,2.14a1.08,1.08,0,0,1-.54,2Zm323.35-4.41a1,1,0,0,1-.53-.15l-3.71-2.14a1.07,1.07,0,1,1,1.07-1.86l3.71,2.14a1.08,1.08,0,0,1-.54,2ZM532,649.8a1,1,0,0,1-.53-.15l-3.71-2.14a1.07,1.07,0,1,1,1.07-1.86l3.71,2.14a1.08,1.08,0,0,1-.54,2Zm323.35-4.42a1,1,0,0,1-.53-.14l-3.71-2.14a1.07,1.07,0,1,1,1.07-1.86l3.71,2.14a1.07,1.07,0,0,1,.39,1.47A1.05,1.05,0,0,1,855.36,645.38Zm-332.62-.94a1,1,0,0,1-.53-.14l-3.71-2.14a1.07,1.07,0,1,1,1.07-1.86l3.71,2.14a1.07,1.07,0,0,1-.54,2ZM846.09,640a1,1,0,0,1-.53-.14l-3.71-2.14a1.08,1.08,0,1,1,1.07-1.87l3.71,2.15a1.07,1.07,0,0,1-.54,2Zm-332.62-.94a1,1,0,0,1-.53-.14l-3.71-2.14a1.07,1.07,0,0,1-.39-1.47,1.05,1.05,0,0,1,1.46-.39l3.71,2.14a1.06,1.06,0,0,1,.39,1.46A1,1,0,0,1,513.47,639.09Zm323.35-4.41a1,1,0,0,1-.53-.15l-3.71-2.14a1.07,1.07,0,1,1,1.07-1.86l3.71,2.14a1.07,1.07,0,0,1,.39,1.47A1,1,0,0,1,836.82,634.68Zm-332.62-.94a1.13,1.13,0,0,1-.53-.14L500,631.45a1.07,1.07,0,0,1,1.07-1.86l3.71,2.15a1.07,1.07,0,0,1-.54,2Zm323.35-4.41a1.08,1.08,0,0,1-.54-.15l-3.7-2.14a1.07,1.07,0,1,1,1.07-1.86l3.71,2.14a1.08,1.08,0,0,1,.39,1.47A1.07,1.07,0,0,1,827.55,629.33Zm-332.62-.94a1,1,0,0,1-.53-.15l-3.71-2.14a1.07,1.07,0,0,1,1.07-1.86l3.71,2.14a1.08,1.08,0,0,1-.54,2ZM818.28,624a1.08,1.08,0,0,1-.54-.15l-3.7-2.14a1.07,1.07,0,0,1,1.07-1.86l3.71,2.14a1.08,1.08,0,0,1-.54,2ZM485.66,623a1,1,0,0,1-.53-.15l-3.74-2.16a1.08,1.08,0,0,1,1.13-1.83L486.2,621a1.08,1.08,0,0,1,.39,1.47A1.09,1.09,0,0,1,485.66,623ZM809,618.62a1.06,1.06,0,0,1-.54-.14l-3.7-2.14a1.07,1.07,0,1,1,1.07-1.86l3.71,2.14a1.07,1.07,0,0,1-.54,2Zm-331.63-2.13a1.05,1.05,0,0,1-.93-.54,9.22,9.22,0,0,1-1.29-4.6,1.08,1.08,0,0,1,1.07-1.09h0a1.07,1.07,0,0,1,1.07,1.07,7.17,7.17,0,0,0,1,3.55,1.08,1.08,0,0,1-.4,1.47A1.1,1.1,0,0,1,477.38,616.49Zm322.36-3.22a1.21,1.21,0,0,1-.54-.14L795.5,611a1.08,1.08,0,0,1-.4-1.47,1.06,1.06,0,0,1,1.47-.39l3.71,2.14a1.07,1.07,0,0,1-.54,2Zm-9.27-5.35a1.13,1.13,0,0,1-.53-.14l-3.71-2.15a1.07,1.07,0,0,1-.4-1.46,1.08,1.08,0,0,1,1.47-.4l3.71,2.14a1.07,1.07,0,0,1,.39,1.47A1.05,1.05,0,0,1,790.47,607.92Zm-312.13-1.46a1.06,1.06,0,0,1-.63-.21,1.07,1.07,0,0,1-.24-1.5,18.11,18.11,0,0,1,3.13-3.28,1.07,1.07,0,1,1,1.37,1.65,16.23,16.23,0,0,0-2.76,2.9A1.07,1.07,0,0,1,478.34,606.46Zm302.86-3.89a1,1,0,0,1-.53-.15L777,600.28a1.07,1.07,0,1,1,1.07-1.86l3.71,2.14a1.08,1.08,0,0,1-.54,2Zm-294.54-2.69a1.09,1.09,0,0,1-.93-.54,1.08,1.08,0,0,1,.39-1.47l3.71-2.14a1.08,1.08,0,0,1,1.08,1.86l-3.71,2.14A1,1,0,0,1,486.66,599.88Zm285.27-2.66a1,1,0,0,1-.53-.15l-3.71-2.14a1.07,1.07,0,1,1,1.07-1.86l3.71,2.14a1.08,1.08,0,0,1-.54,2Zm-276-2.69A1.09,1.09,0,0,1,495,594a1.08,1.08,0,0,1,.39-1.47l3.71-2.14a1.08,1.08,0,0,1,1.08,1.86l-3.71,2.14A1.08,1.08,0,0,1,495.93,594.53Zm266.73-2.67a1.06,1.06,0,0,1-.54-.14l-3.7-2.14a1.07,1.07,0,1,1,1.07-1.86l3.71,2.14a1.07,1.07,0,0,1-.54,2ZM505.2,589.17a1.07,1.07,0,0,1-.54-2l3.71-2.14a1.07,1.07,0,0,1,1.47.39,1.08,1.08,0,0,1-.39,1.47L505.74,589A1.06,1.06,0,0,1,505.2,589.17Zm248.19-2.66a1.06,1.06,0,0,1-.54-.14l-3.7-2.15a1.07,1.07,0,0,1-.4-1.46,1.08,1.08,0,0,1,1.47-.4l3.71,2.15a1.07,1.07,0,0,1-.54,2Zm-238.92-2.69a1.07,1.07,0,0,1-.53-2l3.7-2.15a1.08,1.08,0,0,1,1.08,1.86L515,583.68A1,1,0,0,1,514.47,583.82Zm229.65-2.66a1.08,1.08,0,0,1-.54-.15l-3.7-2.14a1.06,1.06,0,0,1-.4-1.46A1.07,1.07,0,0,1,741,577l3.71,2.14a1.08,1.08,0,0,1,.39,1.47A1.07,1.07,0,0,1,744.12,581.16Zm-220.38-2.69a1.07,1.07,0,0,1-.93-.54,1.08,1.08,0,0,1,.4-1.47l3.7-2.14a1.08,1.08,0,0,1,1.08,1.86l-3.71,2.14A1,1,0,0,1,523.74,578.47Zm211.11-2.66a1.08,1.08,0,0,1-.54-.15l-3.7-2.14a1.07,1.07,0,1,1,1.07-1.86l3.71,2.14a1.08,1.08,0,0,1-.54,2ZM533,573.12a1.09,1.09,0,0,1-.93-.54,1.07,1.07,0,0,1,.4-1.47l3.7-2.14a1.08,1.08,0,0,1,1.08,1.86L533.55,573A1,1,0,0,1,533,573.12Zm192.57-2.67a1.06,1.06,0,0,1-.54-.14l-3.7-2.14a1.07,1.07,0,1,1,1.07-1.86l3.71,2.14a1.07,1.07,0,0,1-.54,2Zm-183.3-2.69a1.07,1.07,0,0,1-.53-2l3.7-2.14a1.08,1.08,0,1,1,1.08,1.86l-3.71,2.14A1,1,0,0,1,542.28,567.76Zm174-2.66a1,1,0,0,1-.53-.14l-3.71-2.14a1.08,1.08,0,0,1-.4-1.47,1.07,1.07,0,0,1,1.47-.39l3.71,2.14a1.07,1.07,0,0,1-.54,2Zm-164.76-2.69a1.07,1.07,0,0,1-.53-2l3.7-2.14a1.07,1.07,0,0,1,1.47.39,1.08,1.08,0,0,1-.39,1.47l-3.71,2.14A1,1,0,0,1,551.55,562.41ZM707,559.75a1.17,1.17,0,0,1-.54-.14l-3.7-2.14a1.08,1.08,0,0,1,1.07-1.87l3.71,2.14a1.08,1.08,0,0,1,.39,1.47A1.07,1.07,0,0,1,707,559.75Zm-146.22-2.69a1.08,1.08,0,0,1-.53-2l3.7-2.14a1.08,1.08,0,0,1,1.08,1.87l-3.71,2.14A1.14,1.14,0,0,1,560.82,557.06Zm136.95-2.66a1.08,1.08,0,0,1-.54-.15l-3.7-2.14a1.07,1.07,0,1,1,1.07-1.86l3.71,2.14a1.08,1.08,0,0,1-.54,2Zm-127.68-2.69a1.07,1.07,0,0,1-.93-.54,1.08,1.08,0,0,1,.4-1.47l3.7-2.14a1.08,1.08,0,0,1,1.08,1.86l-3.71,2.14A1,1,0,0,1,570.09,551.71Zm118.41-2.66a1.08,1.08,0,0,1-.54-.15l-3.7-2.14a1.07,1.07,0,1,1,1.07-1.86L689,547a1.08,1.08,0,0,1,.39,1.47A1.09,1.09,0,0,1,688.5,549.05Zm-109.14-2.69a1.08,1.08,0,0,1-.53-2l3.7-2.14a1.08,1.08,0,0,1,1.08,1.86l-3.71,2.14A1,1,0,0,1,579.36,546.36Zm99.87-2.67a1.06,1.06,0,0,1-.54-.14l-3.7-2.14a1.07,1.07,0,1,1,1.07-1.86l3.71,2.14a1.07,1.07,0,0,1-.54,2ZM588.63,541a1.08,1.08,0,0,1-.53-2l3.71-2.14a1.06,1.06,0,0,1,1.46.39,1.08,1.08,0,0,1-.39,1.47l-3.71,2.14A1,1,0,0,1,588.63,541ZM670,538.34a1.06,1.06,0,0,1-.54-.14l-3.7-2.14a1.08,1.08,0,1,1,1.07-1.87l3.71,2.15a1.07,1.07,0,0,1-.54,2Zm-72.06-2.69a1.07,1.07,0,0,1-.53-2l3.7-2.14a1.06,1.06,0,0,1,1.47.39,1.08,1.08,0,0,1-.39,1.47l-3.71,2.14A1,1,0,0,1,597.9,535.65ZM660.69,533a1.08,1.08,0,0,1-.54-.15l-3.7-2.14a1.06,1.06,0,0,1-.4-1.46,1.07,1.07,0,0,1,1.47-.4l3.71,2.14a1.08,1.08,0,0,1,.39,1.47A1.07,1.07,0,0,1,660.69,533Zm-53.52-2.69a1.07,1.07,0,0,1-.53-2l3.7-2.15a1.08,1.08,0,0,1,1.08,1.86l-3.71,2.15A1.14,1.14,0,0,1,607.17,530.3Zm44.25-2.66a1.08,1.08,0,0,1-.54-.15l-3.66-2.11a1.11,1.11,0,0,1-.42-1.48,1.06,1.06,0,0,1,1.45-.41l.06,0,3.65,2.11a1.08,1.08,0,0,1-.54,2Zm-34.86-2.46a1.08,1.08,0,0,1-.42-2.07,39.74,39.74,0,0,1,4.15-1.46,1.07,1.07,0,0,1,1.34.73,1.08,1.08,0,0,1-.73,1.33,38.33,38.33,0,0,0-3.92,1.38A1.06,1.06,0,0,1,616.56,525.18Zm25.2-2a.84.84,0,0,1-.27,0,31.89,31.89,0,0,0-4.07-.76,1.08,1.08,0,0,1,.27-2.14A36.25,36.25,0,0,1,642,521a1.08,1.08,0,0,1-.27,2.12Zm-14.88-.71a1.07,1.07,0,0,1-.14-2.14c1.44-.19,2.91-.31,4.37-.37a1.1,1.1,0,0,1,1.11,1,1.07,1.07,0,0,1-1,1.11c-1.38,0-2.78.17-4.16.35Z"/><path class="cls-12" d="M708.44,737,499.35,616.31c-3.68-2.12-5.51-4.95-5.57-7.93V598c.07-3.62,2.74,2.66,7.89-.32l118.65-68.5c9.54-5.51,24-6.11,32.22-1.34L861.62,648.59c2.76,1.59,4.75-5.17,5.47-3,.24.72.09,10.19.1,10.93.08,3.71-2.59,7.63-7.88,10.68L740.65,735.69C731.11,741.19,716.69,741.79,708.44,737Z"/><path class="cls-13" d="M708.44,726.86,499.35,606.15c-8.25-4.77-7.22-13.1,2.32-18.6L620.32,519c9.54-5.5,24-6.1,32.22-1.33L861.62,638.42c8.26,4.77,7.22,13.09-2.31,18.6l-118.66,68.5C731.11,731,716.69,731.63,708.44,726.86Z"/><path class="cls-14" d="M708.44,737c8.25,4.76,22.67,4.16,32.21-1.34V725.52c-9.54,5.51-24,6.11-32.21,1.34Z"/><path class="cls-15" d="M708.44,726.86,499.35,606.15c-4-2.31-5.79-5.45-5.53-8.69a4.22,4.22,0,0,0,0,.57v10.35c.06,3,1.89,5.81,5.57,7.93L708.44,737Z"/><path class="cls-16" d="M859.31,655.29,740.65,723.8c-9.54,5.5-24,6.1-32.21,1.33L499.35,604.42c-3.42-2-5.22-4.57-5.51-7.32-.43,3.38,1.38,6.66,5.51,9L708.44,726.86c8.25,4.77,22.67,4.17,32.21-1.34L859.31,657c5.58-3.22,8.22-7.41,7.82-11.28C866.7,649.1,864.06,652.54,859.31,655.29Z"/><path class="cls-17" d="M660.84,684.69l-74.41-43c-1.49-.86-1.3-2.36.42-3.36l27.93-16.13a6.49,6.49,0,0,1,5.82-.24L695,665c1.49.86,1.3,2.37-.42,3.36l-27.94,16.13A6.47,6.47,0,0,1,660.84,684.69Z"/><path class="cls-11" d="M586.85,640.14,614.78,624a6.46,6.46,0,0,1,5.82-.24l74.41,43a2.28,2.28,0,0,1,.69.6A1.56,1.56,0,0,0,695,665L620.6,622a6.49,6.49,0,0,0-5.82.24l-27.93,16.13c-1.37.79-1.75,1.9-1.11,2.76A3.2,3.2,0,0,1,586.85,640.14Z"/><path class="cls-18" d="M638.93,533.22l12.82,7.4a6.5,6.5,0,0,0,5.89,0c1.62-.93,1.61-2.45,0-3.4l-12.83-7.4a6.48,6.48,0,0,0-5.88,0C637.29,530.76,637.29,532.28,638.93,533.22Zm22,12.68,6.08,3.5a6.48,6.48,0,0,0,5.88,0c1.62-.93,1.62-2.45,0-3.4l-6.08-3.5a6.5,6.5,0,0,0-5.89,0C659.24,543.43,659.25,545,660.88,545.9Zm15.21,8.78,6.07,3.5a6.5,6.5,0,0,0,5.89,0c1.62-.93,1.61-2.45,0-3.4l-6.07-3.5a6.5,6.5,0,0,0-5.89,0C674.45,552.21,674.46,553.73,676.09,554.68Zm15.21,8.78,6.07,3.5a6.5,6.5,0,0,0,5.89,0c1.62-.93,1.61-2.45,0-3.4l-6.07-3.5a6.5,6.5,0,0,0-5.89,0C689.66,561,689.67,562.51,691.3,563.46Zm15.2,8.78,6.08,3.5a6.5,6.5,0,0,0,5.89,0c1.62-.93,1.61-2.45,0-3.4l-6.08-3.5a6.48,6.48,0,0,0-5.88,0C704.87,569.77,704.87,571.29,706.5,572.24ZM721.71,581l6.08,3.5a6.48,6.48,0,0,0,5.88,0c1.62-.93,1.62-2.45,0-3.4l-6.08-3.5a6.5,6.5,0,0,0-5.89,0C720.07,578.55,720.08,580.07,721.71,581Zm15.21,8.78,6.07,3.5a6.5,6.5,0,0,0,5.89,0c1.62-.93,1.61-2.45,0-3.4l-6.07-3.5a6.5,6.5,0,0,0-5.89,0C735.28,587.33,735.29,588.85,736.92,589.8Zm15.21,8.78,6.07,3.5a6.5,6.5,0,0,0,5.89,0c1.62-.93,1.61-2.45,0-3.4l-6.07-3.5a6.5,6.5,0,0,0-5.89,0C750.49,596.11,750.5,597.63,752.13,598.58Zm15.2,8.78,6.08,3.5a6.5,6.5,0,0,0,5.89,0c1.62-.93,1.61-2.45,0-3.4L773.2,604a6.48,6.48,0,0,0-5.88,0C765.69,604.89,765.7,606.41,767.33,607.36Zm15.21,8.78,6.08,3.5a6.48,6.48,0,0,0,5.88,0c1.62-.93,1.62-2.45,0-3.4l-6.07-3.5a6.5,6.5,0,0,0-5.89,0C780.9,613.67,780.91,615.19,782.54,616.14Zm15.21,8.77,6.07,3.51a6.5,6.5,0,0,0,5.89,0c1.62-.93,1.61-2.45,0-3.4l-6.07-3.5a6.47,6.47,0,0,0-5.89,0C796.11,622.45,796.12,624,797.75,624.91ZM813,633.69,819,637.2a6.5,6.5,0,0,0,5.89,0c1.62-.93,1.61-2.45,0-3.4l-6.08-3.5a6.45,6.45,0,0,0-5.88,0C811.32,631.23,811.33,632.75,813,633.69Zm15.52,9,6.07,3.5a6.5,6.5,0,0,0,5.89,0c1.62-.94,1.61-2.46,0-3.4l-6.07-3.51a6.5,6.5,0,0,0-5.89,0C826.84,640.19,826.85,641.72,828.48,642.66ZM625.25,541.59l5.26,3a7.39,7.39,0,0,0,6.7,0l5.22-3c1.85-1.07,1.84-2.8,0-3.87l-5.26-3a7.42,7.42,0,0,0-6.7,0l-5.22,3C623.38,538.78,623.39,540.51,625.25,541.59Zm27.16,11.82,5.23-3c1.85-1.07,1.84-2.8,0-3.87l-5.26-3a7.42,7.42,0,0,0-6.7,0l-5.23,3c-1.84,1.06-1.83,2.79,0,3.87l5.25,3A7.39,7.39,0,0,0,652.41,553.41Zm3.25,5.74,5.26,3a7.39,7.39,0,0,0,6.7,0l5.23-3c1.84-1.07,1.83-2.8,0-3.87l-5.26-3a7.42,7.42,0,0,0-6.7,0l-5.23,3C653.8,556.34,653.81,558.07,655.66,559.15Zm15.21,8.78,5.26,3a7.39,7.39,0,0,0,6.7,0l5.23-3c1.84-1.07,1.83-2.8,0-3.87l-5.25-3a7.42,7.42,0,0,0-6.7,0l-5.23,3C669,565.12,669,566.85,670.87,567.93Zm32.37,4.94-5.26-3a7.42,7.42,0,0,0-6.7,0l-5.22,3c-1.85,1.06-1.84,2.79,0,3.87l5.26,3a7.39,7.39,0,0,0,6.7,0l5.22-3C705.11,575.67,705.1,573.94,703.24,572.87Zm15.21,8.78-5.26-3a7.42,7.42,0,0,0-6.7,0l-5.23,3c-1.84,1.06-1.83,2.79,0,3.87l5.26,3a7.39,7.39,0,0,0,6.7,0l5.23-3C720.31,584.45,720.31,582.72,718.45,581.65Zm15.21,8.78-5.26-3a7.42,7.42,0,0,0-6.7,0l-5.23,3c-1.84,1.06-1.83,2.79,0,3.87l5.26,3a7.39,7.39,0,0,0,6.7,0l5.23-3C735.52,593.23,735.51,591.5,733.66,590.43Zm15.2,8.78-5.26-3a7.42,7.42,0,0,0-6.7,0l-5.22,3c-1.85,1.06-1.84,2.79,0,3.87l5.26,3a7.39,7.39,0,0,0,6.7,0l5.22-3C750.73,602,750.72,600.28,748.86,599.21ZM764.07,608l-5.26-3a7.42,7.42,0,0,0-6.7,0l-5.22,3c-1.85,1.06-1.84,2.79,0,3.87l5.26,3a7.39,7.39,0,0,0,6.7,0l5.22-3C765.94,610.79,765.93,609.06,764.07,608Zm15.21,8.78-5.26-3a7.42,7.42,0,0,0-6.7,0l-5.23,3c-1.84,1.06-1.83,2.79,0,3.87l5.26,3a7.39,7.39,0,0,0,6.7,0l5.23-3C781.14,619.57,781.13,617.84,779.28,616.77Zm-2,12.62,5.26,3a7.39,7.39,0,0,0,6.7,0l5.23-3c1.84-1.07,1.83-2.8,0-3.87l-5.26-3a7.42,7.42,0,0,0-6.7,0l-5.23,3C775.46,626.58,775.47,628.31,777.32,629.39Zm32.37,4.94-5.26-3a7.42,7.42,0,0,0-6.7,0l-5.22,3c-1.85,1.06-1.84,2.79,0,3.87l5.26,3a7.39,7.39,0,0,0,6.7,0l5.22-3C811.56,637.13,811.55,635.4,809.69,634.33ZM832,647.19l-12-6.94a7.42,7.42,0,0,0-6.7,0l-5.23,3c-1.84,1.06-1.83,2.8,0,3.87l12,6.93a7.39,7.39,0,0,0,6.7,0l5.23-3C833.83,650,833.82,648.26,832,647.19ZM611.16,549.72l12,6.93a7.39,7.39,0,0,0,6.7,0l5.23-3c1.84-1.07,1.83-2.8,0-3.87l-12-6.94a7.42,7.42,0,0,0-6.7,0l-5.23,3C609.3,546.91,609.31,548.65,611.16,549.72Zm22,12.68,5.26,3a7.39,7.39,0,0,0,6.7,0l5.22-3c1.85-1.07,1.84-2.8,0-3.87l-5.25-3a7.41,7.41,0,0,0-6.71,0l-5.22,3C631.25,559.59,631.26,561.32,633.12,562.4Zm20.47,11.81a7.39,7.39,0,0,0,6.7,0l5.22-3c1.85-1.07,1.84-2.8,0-3.87l-5.26-3a7.39,7.39,0,0,0-6.7,0l-5.22,3c-1.85,1.06-1.84,2.79,0,3.87Zm15.2,8.78a7.39,7.39,0,0,0,6.7,0l5.23-3c1.84-1.07,1.83-2.8,0-3.87l-5.26-3a7.39,7.39,0,0,0-6.7,0l-5.23,3c-1.84,1.06-1.83,2.79,0,3.87ZM684,581.85l-5.23,3c-1.84,1.06-1.83,2.79,0,3.86l5.26,3a7.39,7.39,0,0,0,6.7,0l5.23-3c1.84-1.07,1.83-2.8,0-3.87l-5.26-3A7.39,7.39,0,0,0,684,581.85Zm15.53,8.59-5.87,3.39c-1.67,1-1.66,2.53,0,3.5l5.9,3.41a6.7,6.7,0,0,0,6.06,0l5.87-3.39c1.66-1,1.65-2.53,0-3.5l-5.91-3.41A6.71,6.71,0,0,0,699.48,590.44Zm15.2,8.78-5.87,3.39c-1.66,1-1.65,2.53,0,3.5l5.91,3.41a6.68,6.68,0,0,0,6,0l5.87-3.39c1.67-1,1.66-2.53,0-3.5l-5.9-3.41A6.74,6.74,0,0,0,714.68,599.22ZM729.89,608,724,611.39c-1.67,1-1.66,2.53,0,3.5L730,618.3a6.68,6.68,0,0,0,6,0l5.87-3.39c1.67-1,1.66-2.53,0-3.5L736,608A6.74,6.74,0,0,0,729.89,608Zm15.21,8.78-5.87,3.39c-1.67,1-1.66,2.53,0,3.5l5.9,3.41a6.7,6.7,0,0,0,6.06,0l5.87-3.39c1.66-1,1.66-2.53,0-3.5l-5.91-3.41A6.71,6.71,0,0,0,745.1,616.78Zm15.2,8.78L754.44,629c-1.67,1-1.66,2.53,0,3.5l5.91,3.41a6.7,6.7,0,0,0,6.06,0l5.87-3.39c1.66-1,1.65-2.53,0-3.5l-5.91-3.41A6.74,6.74,0,0,0,760.3,625.56Zm21.32,19.09,5.87-3.39c1.67-1,1.66-2.53,0-3.5l-5.9-3.41a6.74,6.74,0,0,0-6.06,0l-5.87,3.39c-1.66,1-1.66,2.53,0,3.5l5.91,3.41A6.68,6.68,0,0,0,781.62,644.65Zm15.21,8.78L802.7,650c1.67-1,1.66-2.53,0-3.5l-5.9-3.41a6.74,6.74,0,0,0-6.06,0l-5.87,3.39c-1.67,1-1.66,2.53,0,3.5l5.91,3.41A6.68,6.68,0,0,0,796.83,653.43Zm21.37,2.08-5.9-3.41a6.67,6.67,0,0,0-6.06,0l-5.87,3.38c-1.66,1-1.65,2.53,0,3.5l5.91,3.41a6.68,6.68,0,0,0,6.05,0l5.87-3.39C819.89,658,819.88,656.48,818.2,655.51ZM596.75,557.66l19.07,11a6.67,6.67,0,0,0,6.06,0l5.87-3.39c1.66-1,1.65-2.52,0-3.49l-19.07-11a6.7,6.7,0,0,0-6.06,0l-5.86,3.39C595.07,555.13,595.08,556.7,596.75,557.66ZM625.12,574l5.91,3.41a6.65,6.65,0,0,0,6.05,0l5.87-3.39c1.67-1,1.66-2.52,0-3.49l-5.9-3.41a6.7,6.7,0,0,0-6.06,0l-5.87,3.39C623.44,571.51,623.45,573.07,625.12,574Zm15.21,8.78,5.91,3.41a6.65,6.65,0,0,0,6,0l5.87-3.39c1.67-1,1.66-2.52,0-3.49l-5.9-3.41a6.7,6.7,0,0,0-6.06,0l-5.87,3.39C638.64,580.29,638.65,581.85,640.33,582.82Zm15.21,8.78,5.9,3.41a6.67,6.67,0,0,0,6.06,0l5.87-3.39c1.66-1,1.66-2.52,0-3.49l-5.91-3.41a6.68,6.68,0,0,0-6.05,0l-5.87,3.39C653.85,589.07,653.86,590.63,655.54,591.6Zm27.17,12.2,5.86-3.39c1.67-1,1.66-2.52,0-3.49l-5.91-3.41a6.7,6.7,0,0,0-6.06,0l-5.86,3.39c-1.67,1-1.66,2.52,0,3.49l5.91,3.41A6.67,6.67,0,0,0,682.71,603.8Zm15.2,8.78,5.87-3.39c1.67-1,1.66-2.52,0-3.49l-5.9-3.41a6.7,6.7,0,0,0-6.06,0l-5.87,3.39c-1.66,1-1.66,2.52,0,3.49l5.91,3.41A6.65,6.65,0,0,0,697.91,612.58Zm15.21,8.78L719,618c1.67-1,1.66-2.52,0-3.49l-5.91-3.41a6.68,6.68,0,0,0-6,0l-5.87,3.39c-1.67,1-1.66,2.52,0,3.49l5.91,3.41A6.65,6.65,0,0,0,713.12,621.36Zm15.21,8.78,5.87-3.39c1.66-1,1.66-2.52,0-3.49l-5.91-3.41a6.68,6.68,0,0,0-6,0l-5.87,3.39c-1.67,1-1.66,2.52,0,3.49l5.9,3.41A6.67,6.67,0,0,0,728.33,630.14Zm15.21,8.78,5.86-3.39c1.67-1,1.66-2.52,0-3.49l-5.91-3.41a6.7,6.7,0,0,0-6.06,0L731.56,632c-1.67,1-1.66,2.52,0,3.49l5.91,3.41A6.67,6.67,0,0,0,743.54,638.92Zm15.2,8.78,5.87-3.39c1.67-1,1.66-2.52,0-3.49l-5.9-3.41a6.7,6.7,0,0,0-6.06,0l-5.87,3.39c-1.66,1-1.66,2.52,0,3.49l5.91,3.41A6.65,6.65,0,0,0,758.74,647.7Zm3.25,5.36,5.9,3.41a6.67,6.67,0,0,0,6.06,0l5.87-3.39c1.67-1,1.66-2.52,0-3.49l-5.91-3.41a6.68,6.68,0,0,0-6,0L762,649.57C760.3,650.53,760.31,652.09,762,653.06Zm42.13,10.58-15-8.67a6.68,6.68,0,0,0-6.05,0l-5.87,3.39c-1.67,1-1.66,2.52,0,3.49l15,8.67a6.67,6.67,0,0,0,6.06,0l5.87-3.38C805.81,666.17,805.8,664.61,804.12,663.64ZM582.73,566.22l27,15.62a7.56,7.56,0,0,0,6.84,0l5.09-2.94c1.88-1.08,1.87-2.85,0-3.95l-27.06-15.62a7.56,7.56,0,0,0-6.84,0l-5.08,2.94C580.82,563.35,580.83,565.12,582.73,566.22Zm37.14,21.44,5.12,3a7.56,7.56,0,0,0,6.84,0l5.09-2.94c1.88-1.08,1.87-2.85,0-4l-5.11-3a7.53,7.53,0,0,0-6.84,0l-5.09,2.93C618,584.8,618,586.57,619.87,587.66Zm15.21,8.78,5.12,3a7.56,7.56,0,0,0,6.84,0l5.08-2.94c1.89-1.08,1.88-2.85,0-4L647,589.57a7.53,7.53,0,0,0-6.84,0l-5.08,2.93C633.17,593.58,633.18,595.35,635.08,596.44Zm15.2,8.78,5.12,3a7.56,7.56,0,0,0,6.84,0l5.09-2.94c1.88-1.09,1.87-2.85,0-4l-5.12-2.95a7.53,7.53,0,0,0-6.84,0l-5.09,2.93C648.38,602.36,648.39,604.13,650.28,605.22ZM665.49,614l5.12,3a7.56,7.56,0,0,0,6.84,0l5.09-2.94c1.88-1.09,1.87-2.85,0-3.95l-5.12-3a7.53,7.53,0,0,0-6.84,0l-5.09,2.93C663.59,611.14,663.6,612.91,665.49,614Zm15.21,8.78,5.12,3a7.56,7.56,0,0,0,6.84,0l5.08-2.94c1.89-1.09,1.88-2.85,0-3.95l-5.12-3a7.53,7.53,0,0,0-6.84,0l-5.08,2.93C678.79,619.92,678.8,621.69,680.7,622.78Zm15.21,8.78,5.11,3a7.58,7.58,0,0,0,6.85,0l5.08-2.94c1.88-1.09,1.88-2.85,0-4l-5.12-2.95a7.53,7.53,0,0,0-6.84,0l-5.08,2.93C694,628.7,694,630.47,695.91,631.56Zm15.2,8.78,5.12,3a7.56,7.56,0,0,0,6.84,0l5.09-2.94c1.88-1.09,1.87-2.85,0-4L723,633.47a7.53,7.53,0,0,0-6.84,0l-5.09,2.93C709.21,637.48,709.22,639.25,711.11,640.34Zm15.21,8.78,5.12,3a7.56,7.56,0,0,0,6.84,0l5.09-2.94c1.88-1.09,1.87-2.85,0-3.95l-5.12-3a7.53,7.53,0,0,0-6.84,0l-5.09,2.93C724.42,646.26,724.43,648,726.32,649.12Zm15.21,8.78,5.12,3a7.56,7.56,0,0,0,6.84,0l5.08-2.94c1.89-1.09,1.88-2.85,0-3.95l-5.12-3a7.53,7.53,0,0,0-6.84,0L741.51,654C739.62,655,739.63,656.81,741.53,657.9Zm15.21,8.78,5.11,3a7.56,7.56,0,0,0,6.84,0l5.09-2.94c1.88-1.09,1.87-2.85,0-4l-5.12-3a7.53,7.53,0,0,0-6.84,0l-5.09,2.93C754.83,663.82,754.84,665.59,756.74,666.68Zm32.56,5.06-5.11-3a7.56,7.56,0,0,0-6.84,0l-5.09,2.94c-1.88,1.08-1.87,2.85,0,3.95l5.12,3a7.53,7.53,0,0,0,6.84,0l5.09-2.93C791.21,674.6,791.2,672.83,789.3,671.74ZM592.41,574.33l-11.86-6.85a7.56,7.56,0,0,0-6.84,0l-5.09,2.94c-1.88,1.09-1.87,2.86,0,4l11.87,6.85a7.53,7.53,0,0,0,6.84,0l5.09-2.93C594.32,577.19,594.31,575.42,592.41,574.33Zm15.21,8.78-5.12-3a7.56,7.56,0,0,0-6.84,0l-5.08,2.94c-1.89,1.08-1.88,2.85,0,3.95l5.12,3a7.56,7.56,0,0,0,6.84,0l5.08-2.93C609.53,586,609.52,584.2,607.62,583.11Zm15.21,8.78-5.12-3a7.56,7.56,0,0,0-6.84,0l-5.09,2.94c-1.88,1.08-1.87,2.85,0,3.95l5.11,3a7.56,7.56,0,0,0,6.84,0l5.09-2.93C624.73,594.75,624.72,593,622.83,591.89Zm106.45,61.46-96.36-55.64a7.56,7.56,0,0,0-6.84,0L621,600.64c-1.88,1.08-1.87,2.85,0,4l96.37,55.63a7.56,7.56,0,0,0,6.84,0l5.08-2.93C731.19,656.21,731.18,654.44,729.28,653.35Zm15.21,8.78-5.12-3a7.56,7.56,0,0,0-6.84,0l-5.09,2.94c-1.88,1.08-1.87,2.85,0,3.95l5.12,3a7.56,7.56,0,0,0,6.84,0l5.09-2.93C746.39,665,746.38,663.22,744.49,662.13Zm15.21,8.78-5.12-3a7.56,7.56,0,0,0-6.84,0l-5.09,2.94c-1.88,1.08-1.87,2.85,0,4l5.12,2.95a7.56,7.56,0,0,0,6.84,0l5.09-2.93C761.6,673.77,761.59,672,759.7,670.91Zm15.52,9-5.12-3a7.56,7.56,0,0,0-6.84,0l-5.09,2.94c-1.88,1.09-1.87,2.85,0,3.95l5.11,3a7.56,7.56,0,0,0,6.84,0l5.09-2.94C777.12,682.73,777.11,681,775.22,679.87Z"/><path class="cls-11" d="M638.93,531.8l12.82,7.41a6.53,6.53,0,0,0,5.89,0c1.62-.94,1.61-2.46,0-3.4l-12.83-7.41a6.51,6.51,0,0,0-5.88,0C637.29,529.34,637.29,530.86,638.93,531.8Zm22,12.68L667,548a6.51,6.51,0,0,0,5.88,0c1.62-.94,1.62-2.46,0-3.4l-6.08-3.51a6.5,6.5,0,0,0-5.89,0C659.24,542,659.25,543.54,660.88,544.48Zm15.21,8.78,6.07,3.51a6.53,6.53,0,0,0,5.89,0c1.62-.94,1.61-2.46,0-3.4L682,549.87a6.5,6.5,0,0,0-5.89,0C674.45,550.8,674.46,552.32,676.09,553.26ZM691.3,562l6.07,3.51a6.53,6.53,0,0,0,5.89,0c1.62-.94,1.61-2.46,0-3.4l-6.07-3.51a6.5,6.5,0,0,0-5.89,0C689.66,559.58,689.67,561.1,691.3,562Zm15.2,8.78,6.08,3.51a6.53,6.53,0,0,0,5.89,0c1.62-.94,1.61-2.46,0-3.4l-6.08-3.51a6.48,6.48,0,0,0-5.88,0C704.87,568.36,704.87,569.88,706.5,570.82Zm15.21,8.78,6.08,3.51a6.51,6.51,0,0,0,5.88,0c1.62-.94,1.62-2.46,0-3.4l-6.08-3.51a6.5,6.5,0,0,0-5.89,0C720.07,577.14,720.08,578.66,721.71,579.6Zm15.21,8.78,6.07,3.51a6.53,6.53,0,0,0,5.89,0c1.62-.94,1.61-2.46,0-3.4L742.79,585a6.5,6.5,0,0,0-5.89,0C735.28,585.92,735.29,587.44,736.92,588.38Zm15.21,8.78,6.07,3.51a6.53,6.53,0,0,0,5.89,0c1.62-.94,1.61-2.46,0-3.4L758,593.77a6.5,6.5,0,0,0-5.89,0C750.49,594.7,750.5,596.22,752.13,597.16Zm15.2,8.78,6.08,3.51a6.53,6.53,0,0,0,5.89,0c1.62-.94,1.61-2.46,0-3.4l-6.08-3.51a6.48,6.48,0,0,0-5.88,0C765.69,603.48,765.7,605,767.33,605.94Zm15.21,8.78,6.08,3.51a6.51,6.51,0,0,0,5.88,0c1.62-.94,1.62-2.46,0-3.4l-6.07-3.51a6.5,6.5,0,0,0-5.89,0C780.9,612.26,780.91,613.78,782.54,614.72Zm15.21,8.78,6.07,3.51a6.53,6.53,0,0,0,5.89,0c1.62-.94,1.61-2.46,0-3.4l-6.07-3.51a6.5,6.5,0,0,0-5.89,0C796.11,621,796.12,622.56,797.75,623.5ZM813,632.28l6.07,3.51a6.53,6.53,0,0,0,5.89,0c1.62-.94,1.61-2.46,0-3.4l-6.08-3.51a6.48,6.48,0,0,0-5.88,0C811.32,629.82,811.33,631.34,813,632.28Zm15.52,9,6.07,3.51a6.53,6.53,0,0,0,5.89,0c1.62-.94,1.61-2.46,0-3.4l-6.07-3.51a6.53,6.53,0,0,0-5.89,0C826.84,638.78,826.85,640.3,828.48,641.24ZM625.25,540.17l5.26,3a7.42,7.42,0,0,0,6.7,0l5.22-3c1.85-1.06,1.84-2.8,0-3.87l-5.26-3a7.39,7.39,0,0,0-6.7,0l-5.22,3C623.38,537.37,623.39,539.1,625.25,540.17ZM652.41,552l5.23-3c1.85-1.06,1.84-2.8,0-3.87l-5.26-3a7.39,7.39,0,0,0-6.7,0l-5.23,3c-1.84,1.07-1.83,2.8,0,3.87l5.25,3A7.42,7.42,0,0,0,652.41,552Zm3.25,5.73,5.26,3a7.42,7.42,0,0,0,6.7,0l5.23-3c1.84-1.06,1.83-2.8,0-3.87l-5.26-3a7.39,7.39,0,0,0-6.7,0l-5.23,3C653.8,554.93,653.81,556.66,655.66,557.73Zm15.21,8.78,5.26,3a7.42,7.42,0,0,0,6.7,0l5.23-3c1.84-1.06,1.83-2.8,0-3.87l-5.25-3a7.39,7.39,0,0,0-6.7,0l-5.23,3C669,563.71,669,565.44,670.87,566.51Zm32.37,4.94-5.26-3a7.39,7.39,0,0,0-6.7,0l-5.22,3c-1.85,1.07-1.84,2.8,0,3.87l5.26,3a7.42,7.42,0,0,0,6.7,0l5.22-3C705.11,574.26,705.1,572.52,703.24,571.45Zm15.21,8.78-5.26-3a7.39,7.39,0,0,0-6.7,0l-5.23,3c-1.84,1.07-1.83,2.8,0,3.87l5.26,3a7.42,7.42,0,0,0,6.7,0l5.23-3C720.31,583,720.31,581.3,718.45,580.23ZM733.66,589l-5.26-3a7.39,7.39,0,0,0-6.7,0l-5.23,3c-1.84,1.07-1.83,2.8,0,3.87l5.26,3a7.42,7.42,0,0,0,6.7,0l5.23-3C735.52,591.82,735.51,590.08,733.66,589Zm15.2,8.78-5.26-3a7.39,7.39,0,0,0-6.7,0l-5.22,3c-1.85,1.07-1.84,2.8,0,3.87l5.26,3a7.42,7.42,0,0,0,6.7,0l5.22-3C750.73,600.6,750.72,598.86,748.86,597.79Zm15.21,8.78-5.26-3a7.39,7.39,0,0,0-6.7,0l-5.22,3c-1.85,1.07-1.84,2.8,0,3.87l5.26,3a7.42,7.42,0,0,0,6.7,0l5.22-3C765.94,609.38,765.93,607.64,764.07,606.57Zm15.21,8.78-5.26-3a7.39,7.39,0,0,0-6.7,0l-5.23,3c-1.84,1.07-1.83,2.8,0,3.87l5.26,3a7.42,7.42,0,0,0,6.7,0l5.23-3C781.14,618.16,781.13,616.42,779.28,615.35Zm-2,12.62,5.26,3a7.42,7.42,0,0,0,6.7,0l5.23-3c1.84-1.06,1.83-2.8,0-3.87l-5.26-3a7.39,7.39,0,0,0-6.7,0l-5.23,3C775.46,625.17,775.47,626.9,777.32,628Zm32.37,4.94-5.26-3a7.39,7.39,0,0,0-6.7,0l-5.22,3c-1.85,1.07-1.84,2.8,0,3.87l5.26,3a7.42,7.42,0,0,0,6.7,0l5.22-3C811.56,635.72,811.55,634,809.69,632.91ZM832,645.77l-12-6.93a7.39,7.39,0,0,0-6.7,0l-5.23,3c-1.84,1.07-1.83,2.8,0,3.87l12,6.93a7.39,7.39,0,0,0,6.7,0l5.23-3C833.83,648.57,833.82,646.84,832,645.77ZM611.16,548.3l12,6.93a7.39,7.39,0,0,0,6.7,0l5.23-3c1.84-1.07,1.83-2.8,0-3.87l-12-6.93a7.39,7.39,0,0,0-6.7,0l-5.23,3C609.3,545.5,609.31,547.23,611.16,548.3Zm22,12.68,5.26,3a7.39,7.39,0,0,0,6.7,0l5.22-3c1.85-1.07,1.84-2.8,0-3.87l-5.25-3a7.45,7.45,0,0,0-6.71,0l-5.22,3C631.25,558.17,631.26,559.91,633.12,561Zm20.47,11.81a7.39,7.39,0,0,0,6.7,0l5.22-3c1.85-1.07,1.84-2.8,0-3.87l-5.26-3a7.42,7.42,0,0,0-6.7,0l-5.22,3c-1.85,1.06-1.84,2.8,0,3.87Zm15.2,8.78a7.39,7.39,0,0,0,6.7,0l5.23-3c1.84-1.07,1.83-2.8,0-3.87l-5.26-3a7.42,7.42,0,0,0-6.7,0l-5.23,3c-1.84,1.06-1.83,2.8,0,3.87ZM684,580.43l-5.23,3c-1.84,1.06-1.83,2.8,0,3.87l5.26,3a7.39,7.39,0,0,0,6.7,0l5.23-3c1.84-1.07,1.83-2.8,0-3.87l-5.26-3A7.42,7.42,0,0,0,684,580.43Zm15.53,8.6-5.87,3.39c-1.67,1-1.66,2.52,0,3.49l5.9,3.41a6.7,6.7,0,0,0,6.06,0l5.87-3.39c1.66-1,1.65-2.52,0-3.49L705.53,589A6.65,6.65,0,0,0,699.48,589Zm15.2,8.78-5.87,3.39c-1.66,1-1.65,2.52,0,3.49l5.91,3.41a6.68,6.68,0,0,0,6,0l5.87-3.39c1.67-1,1.66-2.52,0-3.49l-5.9-3.41A6.67,6.67,0,0,0,714.68,597.81Zm15.21,8.78L724,610c-1.67,1-1.66,2.52,0,3.49l5.91,3.41a6.68,6.68,0,0,0,6,0l5.87-3.39c1.67-1,1.66-2.52,0-3.49L736,606.6A6.67,6.67,0,0,0,729.89,606.59Zm15.21,8.78-5.87,3.39c-1.67,1-1.66,2.52,0,3.49l5.9,3.41a6.7,6.7,0,0,0,6.06,0l5.87-3.39c1.66-1,1.66-2.52,0-3.49l-5.91-3.41A6.65,6.65,0,0,0,745.1,615.37Zm15.2,8.78-5.86,3.39c-1.67,1-1.66,2.52,0,3.49l5.91,3.41a6.7,6.7,0,0,0,6.06,0l5.87-3.39c1.66-1,1.65-2.52,0-3.49l-5.91-3.41A6.67,6.67,0,0,0,760.3,624.15Zm21.32,19.08,5.87-3.39c1.67-1,1.66-2.52,0-3.49l-5.9-3.41a6.67,6.67,0,0,0-6.06,0l-5.87,3.39c-1.66,1-1.66,2.52,0,3.49l5.91,3.41A6.68,6.68,0,0,0,781.62,643.23ZM796.83,652l5.87-3.39c1.67-1,1.66-2.52,0-3.49l-5.9-3.41a6.67,6.67,0,0,0-6.06,0l-5.87,3.39c-1.67,1-1.66,2.52,0,3.49l5.91,3.41A6.68,6.68,0,0,0,796.83,652Zm21.37,2.08-5.9-3.41a6.7,6.7,0,0,0-6.06,0l-5.87,3.39c-1.66,1-1.65,2.53,0,3.49L806.3,661a6.65,6.65,0,0,0,6.05,0l5.87-3.38C819.89,656.62,819.88,655.06,818.2,654.09ZM596.75,556.25l19.07,11a6.74,6.74,0,0,0,6.06,0l5.87-3.39c1.66-1,1.65-2.53,0-3.5l-19.07-11a6.74,6.74,0,0,0-6.06,0l-5.86,3.39C595.07,553.71,595.08,555.28,596.75,556.25Zm28.37,16.38L631,576a6.71,6.71,0,0,0,6.05,0l5.87-3.39c1.67-1,1.66-2.53,0-3.5l-5.9-3.41a6.7,6.7,0,0,0-6.06,0l-5.87,3.39C623.44,570.09,623.45,571.66,625.12,572.63Zm15.21,8.78,5.91,3.41a6.71,6.71,0,0,0,6,0l5.87-3.39c1.67-1,1.66-2.53,0-3.5l-5.9-3.41a6.7,6.7,0,0,0-6.06,0l-5.87,3.39C638.64,578.87,638.65,580.44,640.33,581.41Zm15.21,8.78,5.9,3.41a6.74,6.74,0,0,0,6.06,0l5.87-3.39c1.66-1,1.66-2.53,0-3.5l-5.91-3.41a6.68,6.68,0,0,0-6.05,0l-5.87,3.39C653.85,587.65,653.86,589.22,655.54,590.19Zm27.17,12.2,5.86-3.39c1.67-1,1.66-2.53,0-3.5l-5.91-3.41a6.7,6.7,0,0,0-6.06,0l-5.86,3.39c-1.67,1-1.66,2.53,0,3.5l5.91,3.41A6.74,6.74,0,0,0,682.71,602.39Zm15.2,8.78,5.87-3.39c1.67-1,1.66-2.53,0-3.5l-5.9-3.41a6.7,6.7,0,0,0-6.06,0l-5.87,3.39c-1.66,1-1.66,2.53,0,3.5l5.91,3.41A6.71,6.71,0,0,0,697.91,611.17ZM713.12,620l5.87-3.39c1.67-1,1.66-2.53,0-3.5l-5.91-3.41a6.68,6.68,0,0,0-6,0L701.14,613c-1.67,1-1.66,2.53,0,3.5l5.91,3.41A6.71,6.71,0,0,0,713.12,620Zm15.21,8.78,5.87-3.39c1.66-1,1.66-2.53,0-3.5l-5.91-3.41a6.68,6.68,0,0,0-6,0l-5.87,3.39c-1.67,1-1.66,2.53,0,3.5l5.9,3.41A6.74,6.74,0,0,0,728.33,628.73Zm15.21,8.78,5.86-3.39c1.67-1,1.66-2.53,0-3.5l-5.91-3.41a6.7,6.7,0,0,0-6.06,0l-5.86,3.39c-1.67,1-1.66,2.53,0,3.5l5.91,3.41A6.74,6.74,0,0,0,743.54,637.51Zm15.2,8.78,5.87-3.39c1.67-1,1.66-2.53,0-3.5l-5.9-3.41a6.7,6.7,0,0,0-6.06,0l-5.87,3.39c-1.66,1-1.66,2.53,0,3.5l5.91,3.41A6.71,6.71,0,0,0,758.74,646.29Zm3.25,5.36,5.9,3.41a6.74,6.74,0,0,0,6.06,0l5.87-3.39c1.67-1,1.66-2.53,0-3.5l-5.91-3.41a6.68,6.68,0,0,0-6,0L762,648.15C760.3,649.11,760.31,650.68,762,651.65Zm42.13,10.57-15-8.67a6.68,6.68,0,0,0-6.05,0l-5.87,3.39c-1.67,1-1.66,2.53,0,3.5l15,8.67a6.74,6.74,0,0,0,6.06,0l5.87-3.39C805.81,664.76,805.8,663.19,804.12,662.22ZM582.73,564.8l27,15.62a7.56,7.56,0,0,0,6.84,0l5.09-2.93c1.88-1.09,1.87-2.86,0-4l-27.06-15.62a7.56,7.56,0,0,0-6.84,0l-5.08,2.94C580.82,561.94,580.83,563.71,582.73,564.8Zm37.14,21.45,5.12,3a7.56,7.56,0,0,0,6.84,0l5.09-2.93c1.88-1.09,1.87-2.86,0-3.95l-5.11-3a7.56,7.56,0,0,0-6.84,0l-5.09,2.94C618,583.38,618,585.15,619.87,586.25ZM635.08,595l5.12,3a7.56,7.56,0,0,0,6.84,0l5.08-2.93c1.89-1.09,1.88-2.86,0-3.95l-5.12-3a7.56,7.56,0,0,0-6.84,0l-5.08,2.94C633.17,592.16,633.18,593.93,635.08,595Zm15.2,8.78,5.12,3a7.56,7.56,0,0,0,6.84,0l5.09-2.93c1.88-1.09,1.87-2.86,0-4l-5.12-3a7.56,7.56,0,0,0-6.84,0l-5.09,2.94C648.38,600.94,648.39,602.71,650.28,603.8Zm15.21,8.78,5.12,3a7.56,7.56,0,0,0,6.84,0l5.09-2.93c1.88-1.09,1.87-2.86,0-4l-5.12-3a7.56,7.56,0,0,0-6.84,0l-5.09,2.94C663.59,609.72,663.6,611.49,665.49,612.58Zm15.21,8.78,5.12,3a7.56,7.56,0,0,0,6.84,0l5.08-2.93c1.89-1.09,1.88-2.86,0-3.95l-5.12-3a7.56,7.56,0,0,0-6.84,0l-5.08,2.94C678.79,618.5,678.8,620.27,680.7,621.36Zm15.21,8.78,5.11,3a7.58,7.58,0,0,0,6.85,0l5.08-2.93c1.88-1.09,1.88-2.86,0-3.95l-5.12-3a7.56,7.56,0,0,0-6.84,0l-5.08,2.94C694,627.28,694,629.05,695.91,630.14Zm15.2,8.78,5.12,3a7.56,7.56,0,0,0,6.84,0l5.09-2.93c1.88-1.09,1.87-2.86,0-4l-5.12-3a7.56,7.56,0,0,0-6.84,0L711.09,635C709.21,636.06,709.22,637.83,711.11,638.92Zm15.21,8.78,5.12,3a7.56,7.56,0,0,0,6.84,0l5.09-2.93c1.88-1.09,1.87-2.86,0-4l-5.12-3a7.56,7.56,0,0,0-6.84,0l-5.09,2.94C724.42,644.84,724.43,646.61,726.32,647.7Zm15.21,8.78,5.12,3a7.56,7.56,0,0,0,6.84,0l5.08-2.93c1.89-1.09,1.88-2.86,0-3.95l-5.12-3a7.56,7.56,0,0,0-6.84,0l-5.08,2.94C739.62,653.62,739.63,655.39,741.53,656.48Zm15.21,8.78,5.11,3a7.56,7.56,0,0,0,6.84,0l5.09-2.93c1.88-1.09,1.87-2.86,0-3.95l-5.12-3a7.56,7.56,0,0,0-6.84,0l-5.09,2.94C754.83,662.4,754.84,664.17,756.74,665.26Zm32.56,5.06-5.11-3a7.56,7.56,0,0,0-6.84,0l-5.09,2.94c-1.88,1.09-1.87,2.86,0,4l5.12,3a7.56,7.56,0,0,0,6.84,0l5.09-2.94C791.21,673.18,791.2,671.41,789.3,670.32ZM592.41,572.91l-11.86-6.85a7.53,7.53,0,0,0-6.84,0L568.62,569c-1.88,1.09-1.87,2.86,0,3.95l11.87,6.85a7.56,7.56,0,0,0,6.84,0l5.09-2.94C594.32,575.77,594.31,574,592.41,572.91Zm15.21,8.78-5.12-3a7.56,7.56,0,0,0-6.84,0l-5.08,2.94c-1.89,1.09-1.88,2.86,0,4l5.12,2.95a7.56,7.56,0,0,0,6.84,0l5.08-2.94C609.53,584.55,609.52,582.78,607.62,581.69Zm15.21,8.78-5.12-3a7.56,7.56,0,0,0-6.84,0l-5.09,2.94c-1.88,1.09-1.87,2.86,0,3.95l5.11,3a7.56,7.56,0,0,0,6.84,0l5.09-2.94C624.73,593.33,624.72,591.56,622.83,590.47Zm106.45,61.46L632.92,596.3a7.56,7.56,0,0,0-6.84,0L621,599.22c-1.88,1.09-1.87,2.86,0,3.95l96.37,55.63a7.56,7.56,0,0,0,6.84,0l5.08-2.94C731.19,654.79,731.18,653,729.28,651.93Zm15.21,8.78-5.12-3a7.56,7.56,0,0,0-6.84,0l-5.09,2.94c-1.88,1.09-1.87,2.85,0,4l5.12,3a7.56,7.56,0,0,0,6.84,0l5.09-2.94C746.39,663.57,746.38,661.8,744.49,660.71Zm15.21,8.78-5.12-3a7.56,7.56,0,0,0-6.84,0l-5.09,2.94c-1.88,1.09-1.87,2.85,0,3.95l5.12,3a7.56,7.56,0,0,0,6.84,0l5.09-2.94C761.6,672.35,761.59,670.58,759.7,669.49Zm15.52,9-5.12-3a7.53,7.53,0,0,0-6.84,0l-5.09,2.93c-1.88,1.09-1.87,2.86,0,4l5.11,3a7.56,7.56,0,0,0,6.84,0l5.09-2.94C777.12,681.32,777.11,679.55,775.22,678.45Z"/><path class="cls-11" d="M858.31,636.82,656.85,520.44c-7.8-4.5-14.12-16.58-14.12-27v-158c0-10.4,6.32-15.18,14.12-10.67L858.31,441.12c7.8,4.51,14.12,16.59,14.12,27v158C872.43,636.54,866.11,641.32,858.31,636.82Z"/><path class="cls-19" d="M860.12,628.69,660.82,513.57c-6.27-4-10.16-12-10.16-20.11V334.65a2.5,2.5,0,0,1,3.77-2.15l.45.26L854.34,448c7.47,4.31,10.16,12,10.16,20.12V626.54a2.7,2.7,0,0,1-4,2.34Z"/><path class="cls-20" d="M854.34,448,654.88,332.76l-.45-.26a2.5,2.5,0,0,0-3.77,2.15V493.46c0,8.15,3.89,16.12,10.16,20.11l199.3,115.12.34.19a2.7,2.7,0,0,0,4-2.34V468.11C864.5,460,861.81,452.3,854.34,448Zm8.57,178.55a1.11,1.11,0,0,1-1.67,1L661.62,512.2c-5.67-3.61-9.37-11-9.37-18.74V334.65a.92.92,0,0,1,.92-.91.84.84,0,0,1,.46.13L853.54,449.36c7.75,4.46,9.37,12.66,9.37,18.74Z"/><path class="cls-15" d="M862.31,439,660.86,322.62c-3.09-1.78-5.94-2.11-8.27-1.21-.29.11-4.23,2.2-4.51,2.36h0c2.41-1.16,5.46-.95,8.78,1L858.31,441.12c7.8,4.51,14.12,16.59,14.12,27v158c0,6.49-2.46,10.79-6.21,12a2.29,2.29,0,0,0,1.23-.42c.18-.1,4.46-2.51,4.63-2.63,2.68-1.88,4.35-5.74,4.35-11.09V466C876.43,455.58,870.11,443.5,862.31,439Z"/><path class="cls-21" d="M862.31,439,660.86,322.62c-3.09-1.78-5.94-2.11-8.27-1.21-.29.11-4.23,2.2-4.51,2.36h0c2.41-1.16,5.46-.95,8.78,1L858.31,441.12Z"/><path class="cls-22" d="M859,440.78,657.53,324.41c-3.2-1.85-6.14-2.11-8.5-1.09a10.46,10.46,0,0,1,6.81,1.59L857.29,441.29c7.8,4.5,14.12,16.59,14.12,27v158c0,6.13-2.21,10.29-5.61,11.76,4.35-.69,7.31-5.16,7.31-12.27v-158C873.11,457.37,866.78,445.29,859,440.78Z"/><path class="cls-23" d="M796.53,495.49a6.84,6.84,0,0,0,2.1.81c3.45.65,5.3-2.59,4.14-7.23-5.3-21.27-18.07-42.41-34.15-56.53-23.52-20.66-47.64-21.08-57.35-1-1.45,3,.07,8.36,3.4,12s7.21,4.08,8.66,1.08c7.1-14.69,24.76-14.38,42,.74a84.13,84.13,0,0,1,25,41.39A14.73,14.73,0,0,0,796.53,495.49Z"/><polygon class="cls-23" points="811.51 491.21 794.7 514.01 778.72 471.71 811.51 491.21"/><path class="cls-23" d="M754.73,541.89c18.06,10.43,35.32,8.79,43.82-5.4,1.66-2.78.39-8.09-2.85-11.87s-7.19-4.6-8.85-1.83c-7.61,12.72-24.86,11.65-41-2.53a84,84,0,0,1-25.17-42.11c-1.11-4.63-4.81-9-8.27-9.7s-5.37,2.45-4.27,7.08c5.15,21.62,18,43.12,34.39,57.51A77,77,0,0,0,754.73,541.89Z"/><polygon class="cls-23" points="699.46 475.03 713.78 449.23 732.18 491.2 699.46 475.03"/><path class="cls-24" d="M757.69,710l59.62-34.53c2-1.13,2.87-2.66,2.8-4.25h0l0-8.65-3.31,3.89c-.22-.15-.44-.29-.67-.42l-122-70.19c-4.84-2.79-12.16-3.08-16.34-.66l-58.79,34-3.68-4,0,8.46h0c-.09,1.91,1.27,3.94,4,5.51l122,70.19C746.18,712.16,753.5,712.45,757.69,710Z"/><path class="cls-25" d="M789.92,688.85l-3.43,2c-.46.26-.82,0-.82-.62h0a2,2,0,0,1,.82-1.58l3.43-2c.46-.27.83,0,.83.62h0A2,2,0,0,1,789.92,688.85Z"/><path class="cls-26" d="M694.15,595.88c-4.84-2.79-12.16-3.08-16.34-.66l-58.79,34-3.68-4,0,8.46h0c-.09,1.91,1.27,3.94,4,5.51l122,70.19a18.7,18.7,0,0,0,8.8,2.29L750,628Z"/><path class="cls-27" d="M618.16,621.05l59.62-34.53c4.19-2.42,11.51-2.13,16.35.66l122,70.19c4.85,2.79,5.38,7,1.19,9.44l-59.62,34.52c-4.19,2.43-11.51,2.13-16.35-.65l-122-70.19C614.5,627.7,614,623.47,618.16,621.05Z"/><path class="cls-16" d="M757.71,702.25l59.62-34.52c2.16-1.25,3-3,2.76-4.75a5,5,0,0,1-2.81,3.83l-59.62,34.52c-4.19,2.43-11.51,2.13-16.35-.65l-122-70.19c-2.35-1.35-3.67-3-4-4.7-.14,1.94,1.21,4,4,5.62l122,70.19C746.2,704.39,753.52,704.68,757.71,702.25Z"/><path class="cls-19" d="M622.75,622.41,680,589.23c3.11-1.8,8.55-1.58,12.15.49l120.24,69.19c3.59,2.08,4,5.22.88,7L756,699.1c-3.11,1.81-8.55,1.59-12.15-.48l-120.24-69.2C620,627.35,619.64,624.21,622.75,622.41Z"/><g class="cls-3"><g class="cls-28"><path class="cls-23" d="M747.17,654c-1.64,3.65-6,6.25-12.84,7.11-8.63,1.11-19.68-.84-29.93-5.21l6.44-2.41c6.34,2.15,12.82,3,18.06,2.35,5-.64,8.21-2.54,9.41-5.21s.45-5.87-2.35-9.42a1.69,1.69,0,0,1-.43-1.72c.27-.6,1.08-1,2.31-1a8.6,8.6,0,0,1,6.12,2.63c3.83,4.86,4.8,9.36,3.21,12.88"/><polyline class="cls-23" points="714.47 652.14 710.84 653.5 704.4 655.91 700.15 657.5 692.22 644.23 714.47 652.14"/><path class="cls-23" d="M721.77,624.93l-5.47,2.74c-6.69-2.44-13.61-3.45-19.18-2.74-4.9.62-8.12,2.56-9.33,5.25-1.07,2.36-.6,5.3,1.59,8.46a1.57,1.57,0,0,1,.31,1.56c-.29.64-1.2,1-2.57,1-2.28-.07-5-1.32-6-2.8-3-4.32-3.64-8.34-2.19-11.56,1.09-2.42,3.36-4.38,6.67-5.69a25,25,0,0,1,6.08-1.48c8.69-1.11,19.77.85,30.07,5.27"/><polyline class="cls-23" points="735.32 636.35 712.83 629.41 716.3 627.67 721.77 624.93 725.59 623.01 735.32 636.35"/></g></g><polygon class="cls-13" points="500.17 535.67 605.21 442.03 412.26 378.29 307.23 471.93 500.17 535.67"/><polygon class="cls-16" points="498.6 530.56 601.63 438.71 412.38 376.19 309.36 468.04 498.6 530.56"/><path class="cls-29" d="M498.67,531.36a.72.72,0,0,1-.32,0L309.1,468.8a.8.8,0,0,1-.28-1.36l103-91.85a.8.8,0,0,1,.78-.17l189.25,62.52a.82.82,0,0,1,.54.6.8.8,0,0,1-.26.77l-103,91.85A.83.83,0,0,1,498.67,531.36ZM310.93,467.71l187.49,61.94L600.06,439,412.57,377.09Z"/><polygon class="cls-16" points="484.76 530.77 597.92 451.73 417.38 367.29 304.22 446.33 484.76 530.77"/><path class="cls-29" d="M484.83,531.57a.83.83,0,0,1-.41-.07L303.88,447.06a.82.82,0,0,1-.46-.66.83.83,0,0,1,.34-.73l113.16-79a.82.82,0,0,1,.8-.07L598.26,451a.84.84,0,0,1,.46.66.81.81,0,0,1-.35.73l-113.15,79A.8.8,0,0,1,484.83,531.57Zm-179-85.38,178.86,83.66,111.63-78L417.46,368.22Z"/><g class="cls-30"><path class="cls-29" d="M361.71,436.56,350,444.73l12.84,6,11.7-8.17ZM363,452.3a1.5,1.5,0,0,1-.81-.14l-12.85-6a1.6,1.6,0,0,1-.91-1.3,1.58,1.58,0,0,1,.67-1.43l11.71-8.18a1.62,1.62,0,0,1,1.58-.14l12.85,6a1.57,1.57,0,0,1,.91,1.29,1.59,1.59,0,0,1-.68,1.44L363.77,452A1.53,1.53,0,0,1,363,452.3Z"/></g><g class="cls-30"><path class="cls-29" d="M379.4,430.65a.83.83,0,0,1-.73-.34.81.81,0,0,1,.2-1.12l41-28.66a.8.8,0,1,1,.92,1.32l-41,28.65A.82.82,0,0,1,379.4,430.65Z"/></g><polygon class="cls-31" points="367.72 446.37 364.99 433.32 361.97 433.95 363.84 442.87 346.86 441.07 346.54 444.13 367.72 446.37"/><g class="cls-30"><path class="cls-29" d="M391.47,451l-11.69,8.18,12.84,6,11.7-8.17Zm1.29,15.75a1.61,1.61,0,0,1-.81-.15l-12.85-6a1.58,1.58,0,0,1-.23-2.73l11.7-8.18a1.6,1.6,0,0,1,1.58-.13l12.85,6a1.57,1.57,0,0,1,.23,2.73l-11.7,8.18A1.63,1.63,0,0,1,392.76,466.76Z"/></g><path class="cls-29" d="M409.16,445.1a.83.83,0,0,1-.73-.34.81.81,0,0,1,.2-1.12l41-28.65a.8.8,0,1,1,.92,1.31l-41,28.66A.8.8,0,0,1,409.16,445.1Z"/><polygon class="cls-31" points="397.48 460.83 394.75 447.77 391.74 448.4 393.6 457.32 376.62 455.53 376.3 458.58 397.48 460.83"/><g class="cls-30"><path class="cls-29" d="M421.23,465.47l-11.68,8.17,12.83,6,11.7-8.17Zm1.29,15.74a1.72,1.72,0,0,1-.81-.14l-12.85-6a1.57,1.57,0,0,1-.91-1.29,1.61,1.61,0,0,1,.68-1.44l11.7-8.17a1.6,1.6,0,0,1,1.58-.14l12.85,6a1.6,1.6,0,0,1,.91,1.3,1.58,1.58,0,0,1-.67,1.43l-11.71,8.18A1.53,1.53,0,0,1,422.52,481.21Z"/></g><path class="cls-29" d="M438.92,459.55a.79.79,0,0,1-.73-.34.81.81,0,0,1,.2-1.12l41-28.65a.8.8,0,0,1,1.12.2.81.81,0,0,1-.2,1.12l-41,28.65A.8.8,0,0,1,438.92,459.55Z"/><polygon class="cls-31" points="427.24 475.28 424.51 462.22 421.5 462.85 423.36 471.78 406.38 469.98 406.06 473.04 427.24 475.28"/><g class="cls-30"><path class="cls-29" d="M451,479.92l-11.68,8.17,12.83,6,11.7-8.17Zm1.29,15.74a1.48,1.48,0,0,1-.8-.14l-12.86-6a1.58,1.58,0,0,1-.23-2.73l11.7-8.18a1.6,1.6,0,0,1,1.58-.14l12.85,6a1.59,1.59,0,0,1,.24,2.74l-11.71,8.17A1.53,1.53,0,0,1,452.28,495.66Z"/></g><path class="cls-29" d="M468.68,474a.83.83,0,0,1-.73-.34.81.81,0,0,1,.2-1.12l41-28.66a.8.8,0,0,1,.92,1.32l-41,28.65A.82.82,0,0,1,468.68,474Z"/><polygon class="cls-31" points="457 489.73 454.27 476.68 451.25 477.31 453.12 486.23 436.14 484.43 435.82 487.49 457 489.73"/><g class="cls-30"><path class="cls-29" d="M480.75,494.37l-11.68,8.18,12.83,6,11.7-8.17ZM482,510.12a1.59,1.59,0,0,1-.8-.15l-12.86-6a1.58,1.58,0,0,1-.23-2.73l11.7-8.18a1.62,1.62,0,0,1,1.58-.13l12.85,6a1.58,1.58,0,0,1,.24,2.73l-11.71,8.18A1.63,1.63,0,0,1,482,510.12Z"/></g><g class="cls-30"><path class="cls-29" d="M498.44,488.46a.84.84,0,0,1-.73-.34.81.81,0,0,1,.2-1.12l41-28.66a.8.8,0,0,1,.92,1.32l-41,28.66A.8.8,0,0,1,498.44,488.46Z"/></g><polygon class="cls-31" points="486.76 504.19 484.03 491.13 481.02 491.76 482.88 500.68 465.9 498.89 465.58 501.94 486.76 504.19"/><polygon class="cls-13" points="487.83 522.8 600.53 438.54 413.79 358.44 301.09 442.7 487.83 522.8"/><polygon class="cls-16" points="486.71 517.57 597.25 434.92 414.08 356.35 303.54 439 486.71 517.57"/><path class="cls-29" d="M486.71,518.37a.91.91,0,0,1-.32-.06L303.23,439.74a.8.8,0,0,1-.17-1.38L413.6,355.71a.83.83,0,0,1,.8-.1l183.17,78.57a.8.8,0,0,1,.48.64.78.78,0,0,1-.31.74L487.19,518.21A.77.77,0,0,1,486.71,518.37ZM305.14,438.81,486.6,516.65l109.06-81.54L414.19,357.27Z"/><polygon class="cls-16" points="472.9 516.59 592.43 447.57 419.83 347.92 300.3 416.93 472.9 516.59"/><path class="cls-29" d="M472.9,517.39a.8.8,0,0,1-.4-.11L299.89,417.63a.81.81,0,0,1-.4-.7.79.79,0,0,1,.4-.69l119.54-69a.81.81,0,0,1,.8,0l172.61,99.66a.8.8,0,0,1,0,1.39l-119.54,69A.8.8,0,0,1,472.9,517.39Zm-171-100.46,171,98.73,117.93-68.09-171-98.72Z"/><g class="cls-30"><path class="cls-29" d="M358.41,412.14l-12.35,7.14,12.28,7.05,12.35-7.14Zm-.07,15.8a1.6,1.6,0,0,1-.8-.22l-12.28-7.09a1.58,1.58,0,0,1,0-2.74l12.37-7.14a1.59,1.59,0,0,1,1.58,0l12.29,7.1a1.56,1.56,0,0,1,.79,1.37,1.58,1.58,0,0,1-.79,1.37l-12.37,7.14A1.56,1.56,0,0,1,358.34,427.94Z"/></g><g class="cls-30"><path class="cls-29" d="M376.54,407.77a.8.8,0,0,1-.4-1.5l43.34-25a.81.81,0,0,1,1.1.3.79.79,0,0,1-.3,1.09l-43.34,25A.79.79,0,0,1,376.54,407.77Z"/></g><polygon class="cls-31" points="363.55 422.44 361.95 409.19 358.9 409.56 359.99 418.61 343.23 415.37 342.64 418.38 363.55 422.44"/><g class="cls-30"><path class="cls-29" d="M386.81,429.1l-12.34,7.14,12.28,7.05,12.35-7.14Zm-.06,15.8a1.6,1.6,0,0,1-.8-.22l-12.28-7.09a1.58,1.58,0,0,1,0-2.74L386,427.71a1.61,1.61,0,0,1,1.59,0l12.28,7.09a1.58,1.58,0,0,1,0,2.75l-12.36,7.14A1.7,1.7,0,0,1,386.75,444.9Z"/></g><path class="cls-29" d="M405,424.73a.8.8,0,0,1-.4-1.5l43.33-25a.81.81,0,0,1,1.1.3.79.79,0,0,1-.29,1.09l-43.34,25A.79.79,0,0,1,405,424.73Z"/><polygon class="cls-31" points="391.95 439.4 390.36 426.15 387.3 426.52 388.4 435.57 371.63 432.32 371.05 435.34 391.95 439.4"/><g class="cls-30"><path class="cls-29" d="M415.22,446.06l-12.34,7.14,12.27,7.05,12.36-7.14Zm-.07,15.8a1.6,1.6,0,0,1-.79-.22l-12.29-7.09a1.58,1.58,0,0,1,0-2.74l12.36-7.14a1.61,1.61,0,0,1,1.59,0l12.28,7.09a1.58,1.58,0,0,1,0,2.74L416,461.65A1.73,1.73,0,0,1,415.15,461.86Z"/></g><path class="cls-29" d="M433.36,441.69a.8.8,0,0,1-.7-.4.81.81,0,0,1,.29-1.1l43.34-25a.8.8,0,0,1,.81,1.39l-43.34,25A.76.76,0,0,1,433.36,441.69Z"/><polygon class="cls-31" points="420.36 456.36 418.76 443.11 415.71 443.48 416.8 452.53 400.04 449.28 399.46 452.3 420.36 456.36"/><g class="cls-30"><path class="cls-29" d="M443.63,463l-12.35,7.14,12.28,7,12.36-7.14Zm-.07,15.8a1.7,1.7,0,0,1-.79-.21l-12.29-7.1a1.58,1.58,0,0,1,0-2.74l12.37-7.14a1.59,1.59,0,0,1,1.58,0l12.29,7.09a1.58,1.58,0,0,1,0,2.74l-12.37,7.14A1.57,1.57,0,0,1,443.56,478.82Z"/></g><path class="cls-29" d="M461.76,458.65a.8.8,0,0,1-.4-1.5l43.34-25a.81.81,0,0,1,1.1.29.8.8,0,0,1-.3,1.1l-43.34,25A.71.71,0,0,1,461.76,458.65Z"/><polygon class="cls-31" points="448.77 473.31 447.17 460.07 444.12 460.44 445.21 469.49 428.45 466.24 427.86 469.26 448.77 473.31"/><g class="cls-30"><path class="cls-29" d="M472,480l-12.34,7.14,12.28,7L484.32,487Zm-.06,15.8a1.66,1.66,0,0,1-.79-.21l-12.29-7.1a1.58,1.58,0,0,1,0-2.74l12.36-7.14a1.61,1.61,0,0,1,1.59,0l12.29,7.09a1.6,1.6,0,0,1,.79,1.37,1.58,1.58,0,0,1-.8,1.37l-12.36,7.14A1.62,1.62,0,0,1,472,495.78Z"/></g><g class="cls-30"><path class="cls-29" d="M490.17,475.61a.8.8,0,0,1-.4-1.5l43.34-25a.81.81,0,0,1,1.1.29.8.8,0,0,1-.3,1.1l-43.34,25A.8.8,0,0,1,490.17,475.61Z"/></g><polygon class="cls-31" points="477.18 490.27 475.58 477.03 472.52 477.4 473.62 486.45 456.86 483.2 456.27 486.22 477.18 490.27"/><polygon class="cls-13" points="524.16 521.07 636.86 436.81 450.12 356.71 337.42 440.97 524.16 521.07"/><polygon class="cls-16" points="523.04 515.84 633.59 433.19 450.42 354.63 339.87 437.27 523.04 515.84"/><path class="cls-29" d="M523,516.64a.85.85,0,0,1-.31-.06L339.56,438a.81.81,0,0,1-.17-1.38L449.94,354a.78.78,0,0,1,.79-.09L633.9,432.45a.81.81,0,0,1,.17,1.38L523.52,516.49A.83.83,0,0,1,523,516.64ZM341.47,437.09l181.46,77.83L632,433.38,450.53,355.55Z"/><polygon class="cls-16" points="509.23 514.86 628.77 445.85 456.16 346.19 336.63 415.21 509.23 514.86"/><path class="cls-29" d="M509.23,515.66a.79.79,0,0,1-.4-.1L336.22,415.9a.8.8,0,0,1,0-1.39l119.54-69a.77.77,0,0,1,.8,0l172.61,99.65a.81.81,0,0,1,.4.7.79.79,0,0,1-.4.69l-119.54,69A.79.79,0,0,1,509.23,515.66Zm-171-100.45,171,98.72,117.93-68.08-171-98.73Z"/><g class="cls-30"><path class="cls-29" d="M394.74,410.42l-12.34,7.13,12.27,7.05L407,417.47Zm-.07,15.79a1.59,1.59,0,0,1-.8-.21l-12.28-7.09a1.59,1.59,0,0,1,0-2.75L394,409a1.57,1.57,0,0,1,1.58,0l12.29,7.09a1.58,1.58,0,0,1,0,2.74L395.46,426A1.56,1.56,0,0,1,394.67,426.21Z"/></g><g class="cls-30"><path class="cls-29" d="M412.87,406.05a.82.82,0,0,1-.69-.4.81.81,0,0,1,.29-1.1l43.34-25a.8.8,0,1,1,.8,1.39l-43.33,25A.87.87,0,0,1,412.87,406.05Z"/></g><polygon class="cls-31" points="399.88 420.71 398.28 407.47 395.23 407.84 396.32 416.89 379.56 413.64 378.97 416.66 399.88 420.71"/><g class="cls-30"><path class="cls-29" d="M423.14,427.37l-12.34,7.14,12.28,7.05,12.35-7.13Zm-.06,15.8a1.59,1.59,0,0,1-.8-.21L410,435.86a1.58,1.58,0,0,1,0-2.74L422.36,426a1.64,1.64,0,0,1,1.59,0l12.29,7.1a1.58,1.58,0,0,1,0,2.74L423.87,443A1.56,1.56,0,0,1,423.08,443.17Z"/></g><path class="cls-29" d="M441.28,423a.82.82,0,0,1-.7-.41.79.79,0,0,1,.3-1.09l43.34-25a.79.79,0,0,1,1.09.29.8.8,0,0,1-.29,1.1l-43.34,25A.8.8,0,0,1,441.28,423Z"/><polygon class="cls-31" points="428.29 437.67 426.69 424.43 423.63 424.8 424.73 433.85 407.97 430.6 407.38 433.62 428.29 437.67"/><g class="cls-30"><path class="cls-29" d="M451.55,444.33l-12.34,7.14,12.27,7,12.36-7.13Zm-.06,15.8a1.59,1.59,0,0,1-.8-.21l-12.28-7.1a1.57,1.57,0,0,1,0-2.74l12.36-7.14a1.64,1.64,0,0,1,1.59,0l12.28,7.1a1.58,1.58,0,0,1,0,2.74l-12.36,7.14A1.61,1.61,0,0,1,451.49,460.13Z"/></g><path class="cls-29" d="M469.69,440a.81.81,0,0,1-.7-.41.79.79,0,0,1,.3-1.09l43.33-25a.79.79,0,0,1,1.1.29.81.81,0,0,1-.29,1.1l-43.34,25A.83.83,0,0,1,469.69,440Z"/><polygon class="cls-31" points="456.69 454.63 455.1 441.39 452.04 441.75 453.13 450.81 436.37 447.56 435.79 450.57 456.69 454.63"/><g class="cls-30"><path class="cls-29" d="M480,461.29l-12.34,7.14,12.27,7.05,12.36-7.14Zm-.07,15.8a1.58,1.58,0,0,1-.79-.21l-12.29-7.1a1.58,1.58,0,0,1,0-2.74l12.37-7.14a1.62,1.62,0,0,1,1.58,0l12.29,7.1a1.58,1.58,0,0,1,0,2.74l-12.37,7.14A1.56,1.56,0,0,1,479.89,477.09Z"/></g><path class="cls-29" d="M498.09,456.92a.8.8,0,0,1-.69-.4.81.81,0,0,1,.29-1.1l43.34-25a.81.81,0,0,1,.8,1.4l-43.33,25A.86.86,0,0,1,498.09,456.92Z"/><polygon class="cls-31" points="485.1 471.59 483.5 458.35 480.45 458.71 481.54 467.76 464.78 464.52 464.19 467.53 485.1 471.59"/><g class="cls-30"><path class="cls-29" d="M508.37,478.25,496,485.39l12.28,7.05,12.35-7.14Zm-.07,15.8a1.58,1.58,0,0,1-.79-.21l-12.29-7.1a1.58,1.58,0,0,1,0-2.74l12.37-7.14a1.62,1.62,0,0,1,1.58,0L521.46,484a1.59,1.59,0,0,1,0,2.75l-12.36,7.14A1.58,1.58,0,0,1,508.3,494.05Z"/></g><g class="cls-30"><path class="cls-29" d="M526.5,473.88a.8.8,0,0,1-.4-1.5l43.34-25a.81.81,0,0,1,1.1.3.79.79,0,0,1-.3,1.09l-43.34,25A.79.79,0,0,1,526.5,473.88Z"/></g><polygon class="cls-31" points="513.51 488.55 511.91 475.3 508.86 475.67 509.95 484.72 493.19 481.48 492.6 484.49 513.51 488.55"/><polygon class="cls-13" points="508.37 516.15 616.26 425.8 425.38 356.12 317.5 446.47 508.37 516.15"/><polygon class="cls-16" points="506.96 510.99 612.78 422.37 425.56 354.02 319.74 442.64 506.96 510.99"/><path class="cls-29" d="M507,511.79a.7.7,0,0,1-.32-.05L319.47,443.4a.81.81,0,0,1-.24-1.38l105.82-88.61a.78.78,0,0,1,.79-.14l187.22,68.34a.79.79,0,0,1,.51.62.77.77,0,0,1-.27.75L507.48,511.61A.83.83,0,0,1,507,511.79ZM321.33,442.36l185.48,67.72L611.2,422.65,425.72,354.94Z"/><polygon class="cls-16" points="493.12 510.77 608.67 435.27 430.83 345.29 315.28 420.79 493.12 510.77"/><path class="cls-29" d="M493.16,511.57a.82.82,0,0,1-.4-.08l-177.84-90a.83.83,0,0,1-.44-.67.82.82,0,0,1,.36-.72l115.55-75.5a.82.82,0,0,1,.8,0l177.84,90a.8.8,0,0,1,.44.67.78.78,0,0,1-.36.71l-115.55,75.5A.73.73,0,0,1,493.16,511.57ZM316.89,420.7l176.18,89.15,114-74.49L430.88,346.21Z"/><g class="cls-30"><path class="cls-32" d="M373,412.8l-11.93,7.81L373.76,427l11.94-7.81Zm.81,15.77a1.52,1.52,0,0,1-.81-.17L360.39,422a1.59,1.59,0,0,1-.16-2.74l12-7.81a1.62,1.62,0,0,1,1.58-.09l12.66,6.41a1.59,1.59,0,0,1,.15,2.74l-11.95,7.81A1.6,1.6,0,0,1,373.85,428.57Z"/></g><g class="cls-30"><path class="cls-32" d="M390.91,407.44a.84.84,0,0,1-.72-.37.81.81,0,0,1,.24-1.11l41.89-27.37a.8.8,0,0,1,.88,1.34l-41.89,27.38A.86.86,0,0,1,390.91,407.44Z"/></g><polygon class="cls-32" points="378.75 422.79 376.42 409.66 373.39 410.2 374.98 419.17 358.06 416.85 357.65 419.9 378.75 422.79"/><g class="cls-30"><path class="cls-32" d="M402.34,428.16,390.41,436l12.65,6.36,11.94-7.8Zm.81,15.78a1.52,1.52,0,0,1-.81-.17l-12.66-6.4a1.59,1.59,0,0,1-.15-2.74l12-7.81a1.59,1.59,0,0,1,1.58-.09l12.66,6.41a1.58,1.58,0,0,1,.15,2.73l-11.95,7.82A1.6,1.6,0,0,1,403.15,443.94Z"/></g><path class="cls-32" d="M420.21,422.8a.8.8,0,0,1-.48-1.47L461.62,394a.8.8,0,0,1,.88,1.34l-41.9,27.37A.7.7,0,0,1,420.21,422.8Z"/><polygon class="cls-32" points="408.04 438.16 405.72 425.03 402.69 425.56 404.28 434.54 387.36 432.22 386.95 435.26 408.04 438.16"/><g class="cls-30"><path class="cls-32" d="M431.64,443.53l-11.93,7.81,12.65,6.36,11.94-7.8Zm.81,15.78a1.74,1.74,0,0,1-.81-.17L419,452.73a1.58,1.58,0,0,1-.15-2.73l11.95-7.81a1.59,1.59,0,0,1,1.59-.09L445,448.5a1.59,1.59,0,0,1,.15,2.74l-12,7.81A1.64,1.64,0,0,1,432.45,459.31Z"/></g><path class="cls-32" d="M449.51,438.17a.8.8,0,0,1-.49-1.47l41.9-27.38a.81.81,0,0,1,.88,1.35L449.9,438A.79.79,0,0,1,449.51,438.17Z"/><polygon class="cls-32" points="437.34 453.53 435.02 440.39 431.99 440.93 433.58 449.91 416.66 447.59 416.25 450.63 437.34 453.53"/><g class="cls-30"><path class="cls-32" d="M460.94,458.9,449,466.71l12.64,6.36,12-7.81Zm.8,15.78a1.72,1.72,0,0,1-.8-.17l-12.66-6.41a1.59,1.59,0,0,1-.15-2.74l11.95-7.81a1.61,1.61,0,0,1,1.59-.08l12.65,6.4a1.58,1.58,0,0,1,.15,2.74l-12,7.81A1.65,1.65,0,0,1,461.74,474.68Z"/></g><path class="cls-32" d="M478.81,453.54a.82.82,0,0,1-.72-.37.8.8,0,0,1,.23-1.11l41.9-27.37a.81.81,0,0,1,1.11.23.8.8,0,0,1-.24,1.11L479.2,453.41A.82.82,0,0,1,478.81,453.54Z"/><polygon class="cls-32" points="466.64 468.89 464.32 455.76 461.29 456.3 462.88 465.27 445.96 462.95 445.54 466 466.64 468.89"/><g class="cls-30"><path class="cls-32" d="M490.24,474.27l-11.93,7.81L491,488.43l11.95-7.8ZM491,490a1.54,1.54,0,0,1-.79-.16l-12.67-6.41a1.58,1.58,0,0,1-.15-2.74l11.95-7.81a1.64,1.64,0,0,1,1.59-.09l12.65,6.41a1.57,1.57,0,0,1,.87,1.32,1.58,1.58,0,0,1-.72,1.42l-11.95,7.81A1.56,1.56,0,0,1,491,490Z"/></g><g class="cls-30"><path class="cls-32" d="M508.11,468.9a.79.79,0,0,1-.72-.36.8.8,0,0,1,.23-1.11l41.9-27.37a.81.81,0,0,1,1.11.23.8.8,0,0,1-.24,1.11L508.5,468.78A.81.81,0,0,1,508.11,468.9Z"/></g><polygon class="cls-32" points="495.94 484.26 493.62 471.13 490.59 471.66 492.18 480.64 475.26 478.32 474.84 481.37 495.94 484.26"/><g class="cls-3"><g class="cls-33"><path class="cls-32" d="M907.53,317.38l0-4.72c0-1.89,1.33-2.65,3-1.7a6.54,6.54,0,0,1,3,5.13l0,4.72,4.11,2.37a6.53,6.53,0,0,1,3,5.15c0,1.88-1.34,2.65-3,1.7l-4.11-2.37v4.71c0,1.9-1.34,2.66-3,1.7a6.5,6.5,0,0,1-3-5.13v-4.72l-4.1-2.37a6.52,6.52,0,0,1-3-5.14c0-1.89,1.34-2.66,3-1.7l4.1,2.37M869.9,375.85a82.34,82.34,0,0,1-22.49-18.77,81.15,81.15,0,0,1-14-24.27,78.18,78.18,0,0,1-4.74-27.16q0-14.37,5-22a17,17,0,0,1,14.39-8q9.4-.36,22.58,7.24a86.69,86.69,0,0,1,12.07,8.51,87.59,87.59,0,0,1,11.6,11.84,15.78,15.78,0,0,1,3.61,7.23,9,9,0,0,1-.63,5.88,3.82,3.82,0,0,1-3.75,2.2,5,5,0,0,1-2.24-.74,15.5,15.5,0,0,1-3.73-3.29,64.34,64.34,0,0,0-16.86-14.23c-8-4.61-14-5.5-17.95-2.72s-6,9-6,18.57,2,18.15,6,25.46a46.61,46.61,0,0,0,18,17.86,51.67,51.67,0,0,0,13.4,5.43l0-17.71-10-5.8q-6.93-4-6.9-11.19T874.3,327l17.53,10.13A12.8,12.8,0,0,1,898.62,349l-.08,29.77a8.62,8.62,0,0,1-1.19,5c-.78,1.1-2,1.49-3.75,1.18a62.29,62.29,0,0,1-11.29-3.17,82.16,82.16,0,0,1-12.41-5.88m-.57-120.71c-34.67-20-62.87-3.94-63,35.89s27.9,88.36,62.57,108.38,62.86,3.94,63-35.89S904,275.15,869.33,255.14"/><path class="cls-16" d="M870.72,282.85q-13.17-7.61-22.58-7.24a17,17,0,0,0-14.39,8q-5,7.65-5,22a78.18,78.18,0,0,0,4.74,27.16,81.15,81.15,0,0,0,14,24.27,85.35,85.35,0,0,0,34.9,24.65,62.29,62.29,0,0,0,11.29,3.17c1.71.31,3-.08,3.75-1.18a8.62,8.62,0,0,0,1.19-5l.08-29.77a12.8,12.8,0,0,0-6.79-11.89L874.3,327q-6.94-4-6.95,3.19t6.9,11.19l10,5.8,0,17.71a51.67,51.67,0,0,1-13.4-5.43,46.61,46.61,0,0,1-18-17.86q-6.06-11-6-25.46t6-18.57c4-2.78,10-1.89,17.95,2.72a64.34,64.34,0,0,1,16.86,14.23,15.5,15.5,0,0,0,3.73,3.29,5,5,0,0,0,2.24.74,3.82,3.82,0,0,0,3.75-2.2,9,9,0,0,0,.63-5.88,15.78,15.78,0,0,0-3.61-7.23,87.59,87.59,0,0,0-11.6-11.84,86.69,86.69,0,0,0-12.07-8.51"/><path class="cls-16" d="M907.53,318.19l-4.11-2.37c-1.25-.72-2.27-.14-2.28,1.3a5,5,0,0,0,2.27,3.92l4.11,2.37v-5.22M917.59,324l-4.11-2.37v5.21l4.1,2.37c1.26.73,2.27.14,2.28-1.29a5,5,0,0,0-2.26-3.92"/><path class="cls-16" d="M907.53,317.38l-4.1-2.37c-1.65-1-3-.19-3,1.7a6.52,6.52,0,0,0,3,5.14l4.1,2.37v-.81L903.41,321a5,5,0,0,1-2.27-3.92c0-1.44,1-2,2.28-1.3l4.11,2.37v-.81m10.06,5.8-4.11-2.37v.82l4.11,2.37a5,5,0,0,1,2.26,3.92c0,1.43-1,2-2.28,1.29l-4.1-2.37v.82l4.11,2.37c1.65,1,3,.18,3-1.7a6.53,6.53,0,0,0-3-5.15"/><path class="cls-16" d="M910.53,311.77c-1.25-.72-2.27-.14-2.28,1.3l0,16.28a5,5,0,0,0,2.26,3.91c1.25.72,2.27.14,2.27-1.3l0-16.28.36.21-.36-.21a5,5,0,0,0-2.26-3.91"/><path class="cls-16" d="M910.47,333.26a5,5,0,0,1-2.26-3.91l0-16.28c0-1.44,1-2,2.28-1.3a5,5,0,0,1,2.26,3.91l.36.21.35.2-.35-.2-.36-.21,0,16.28c0,1.44-1,2-2.27,1.3m.06-22.3c-1.65-.95-3-.19-3,1.7l0,4.72v11.56a6.5,6.5,0,0,0,3,5.13c1.64,1,3,.2,3-1.7V320.81l0-4.72a6.54,6.54,0,0,0-3-5.13"/></g></g></g></g></svg>