<svg id="Layer_1" data-name="Layer 1" xmlns="http://www.w3.org/2000/svg" xmlns:xlink="http://www.w3.org/1999/xlink" viewBox="0 0 595.25 615.88"><defs><style>.cls-1{opacity:0.2;fill:url(#linear-gradient);}.cls-2{fill:#12324f;}</style><linearGradient id="linear-gradient" x1="605.61" y1="118.39" x2="-3.55" y2="486.44" gradientTransform="translate(384.15 -68.99) rotate(56.18)" gradientUnits="userSpaceOnUse"><stop offset="0.25" stop-color="#95c8d7"/><stop offset="0.99" stop-color="#4682b4"/></linearGradient></defs><title>sinav_raporla</title><path class="cls-1" d="M292.28,11.7c-31-7.92-56.62-.71-56.62-.71h0A215.7,215.7,0,0,0,192,27.93C173.51,37.7,161.33,48.13,148.66,59c-2.82,2.41-12.26,10.58-23.79,22.55-4.91,5.1-20.28,21.16-32.81,39.16-7.51,10.78-31.28,45.41-38.41,94.87-3.43,23.8-1.69,41.5,1.29,71.77,4.81,48.91,12.26,51.27,14.37,90.25.92,17.18,2.39,47.23-6.9,83.54-3.83,15-7.51,26.39-10.77,35.37C41.28,525.08,40,525.91,39.53,532.84c-1.69,25,23.08,53.27,48.87,62.84,31.65,11.73,62.64-5.53,94.3-20.63,121.36-57.89,128.73-24.92,246.06-86,64.2-33.44,96.81-51,122.29-90.79,38.77-60.6,32.34-126.35,30.94-138.5C582,259.74,561.43,80.6,292.28,11.7Z"/><path class="cls-2" d="M510,334.76V177.88a56,56,0,1,0-64-55.36H62v320H302.39c4.16,66.85,59.72,120,127.59,120a127.89,127.89,0,0,0,80-227.76ZM502,82.52a40,40,0,1,1-40,40A40,40,0,0,1,502,82.52Zm-424,56H448.34A55.67,55.67,0,0,0,457.2,156l-48.93,48.93a23.15,23.15,0,0,0-20.57,0l-16.12-16.12a23.69,23.69,0,0,0,2.4-10.29,24,24,0,1,0-48,0,23.48,23.48,0,0,0,2.41,10.28l-40.12,40.12A23.95,23.95,0,1,0,302,250.52a23.55,23.55,0,0,0-2.41-10.28l40.12-40.12a23.24,23.24,0,0,0,20.57,0l16.12,16.12a23.68,23.68,0,0,0-2.4,10.28,24,24,0,0,0,48,0,23.55,23.55,0,0,0-2.41-10.28l48.94-48.92A55.77,55.77,0,0,0,494,177.89v146a127.21,127.21,0,0,0-160,26.3V314.52H286v96h18.34a126,126,0,0,0-1.93,16H78Zm320,80a8,8,0,1,1-8,8A8,8,0,0,1,398,218.52Zm-56-40a8,8,0,1,1,8,8A8,8,0,0,1,342,178.52Zm-56,72a8,8,0,1,1-8-8A8,8,0,0,1,286,250.52Zm144,248a64,64,0,1,1,64-64A64.07,64.07,0,0,1,430,498.52ZM318,372.69a127.14,127.14,0,0,0-9.51,21.83H302v-64h16Zm104-49.76v32a79.84,79.84,0,0,0-64.87,112.43l-27.75,16A111,111,0,0,1,318,434.52c0-59,46-107.46,104-111.59Zm8,223.59a111.93,111.93,0,0,1-92.7-49.24l27.86-16.08a79.75,79.75,0,0,0,129.68,0l27.86,16.08A111.93,111.93,0,0,1,430,546.52ZM530.6,483.38l-27.75-16A79.84,79.84,0,0,0,438,354.93v-32c58,4.13,104,52.54,104,111.59a111,111,0,0,1-11.38,48.86Z"/><path class="cls-2" d="M430,386.52a48,48,0,1,0,48,48A48.05,48.05,0,0,0,430,386.52Zm0,80a32,32,0,1,1,32-32A32,32,0,0,1,430,466.52Z"/><path class="cls-2" d="M94,154.52h16v16H94Z"/><path class="cls-2" d="M126,154.52H238v16H126Z"/><path class="cls-2" d="M94,186.52h16v16H94Z"/><path class="cls-2" d="M126,186.52H238v16H126Z"/><path class="cls-2" d="M94,218.52h16v16H94Z"/><path class="cls-2" d="M126,218.52H238v16H126Z"/><path class="cls-2" d="M94,250.52h16v16H94Z"/><path class="cls-2" d="M126,250.52H238v16H126Z"/><path class="cls-2" d="M94,410.52h48v-80H94Zm16-64h16v48H110Z"/><path class="cls-2" d="M158,410.52h48v-64H158Zm16-48h16v32H174Z"/><path class="cls-2" d="M222,410.52h48v-128H222Zm16-112h16v96H238Z"/></svg>