<svg id="Layer_1" data-name="Layer 1" xmlns="http://www.w3.org/2000/svg" xmlns:xlink="http://www.w3.org/1999/xlink" viewBox="0 0 595.25 615.88"><defs><style>.cls-1{opacity:0.2;fill:url(#linear-gradient);}.cls-2{fill:#010101;}.cls-3{font-size:80px;fill:#1d1d1b;font-family:Nunito-ExtraBold, Nunito;font-weight:800;letter-spacing:0.12em;}.cls-4{letter-spacing:0.2em;}.cls-5{letter-spacing:0.19em;}</style><linearGradient id="linear-gradient" x1="605.61" y1="118.39" x2="-3.55" y2="486.44" gradientTransform="matrix(0.56, 0.83, -0.83, 0.56, 384.15, -68.99)" gradientUnits="userSpaceOnUse"><stop offset="0.25" stop-color="#95c8d7"/><stop offset="0.99" stop-color="#4682b4"/></linearGradient></defs><title>sinav_hazirla</title><path class="cls-1" d="M292.28,11.7c-31-7.92-56.62-.71-56.62-.71h0A215.7,215.7,0,0,0,192,27.93C173.51,37.7,161.33,48.13,148.66,59c-2.82,2.41-12.26,10.58-23.79,22.55-4.91,5.1-20.28,21.16-32.81,39.16-7.51,10.78-31.28,45.41-38.41,94.87-3.43,23.8-1.69,41.5,1.29,71.77,4.81,48.91,12.26,51.27,14.37,90.25.92,17.18,2.39,47.23-6.9,83.54-3.83,15-7.51,26.39-10.77,35.37C41.28,525.08,40,525.91,39.53,532.84c-1.69,25,23.08,53.27,48.87,62.84,31.65,11.73,62.64-5.53,94.3-20.63,121.36-57.89,128.73-24.92,246.06-86,64.2-33.44,96.81-51,122.29-90.79,38.77-60.6,32.34-126.35,30.94-138.5C582,259.74,561.43,80.6,292.28,11.7Z"/><path class="cls-2" d="M368,283.13a7.5,7.5,0,0,0-7.5,7.5v24.64H335.81a7.5,7.5,0,1,0,0,15H361a14.52,14.52,0,0,0,14.5-14.5V290.63A7.5,7.5,0,0,0,368,283.13ZM335.81,172.27h24.64V196.9a7.5,7.5,0,1,0,15,0V171.77a14.52,14.52,0,0,0-14.5-14.5H335.81a7.5,7.5,0,0,0,0,15ZM289,88.53a7.5,7.5,0,1,0-7.5-7.5A7.5,7.5,0,0,0,289,88.53Zm232.5,274.29h-71V95.27A47.56,47.56,0,0,0,403,47.77H175a47.55,47.55,0,0,0-47.5,47.5v417a47.55,47.55,0,0,0,47.5,47.5H403a47.56,47.56,0,0,0,47.5-47.5v-31.5h71a23.53,23.53,0,0,0,23.5-23.5V386.32A23.53,23.53,0,0,0,521.45,362.82Zm8.5,94.45a8.52,8.52,0,0,1-8.5,8.5H370.82a7.5,7.5,0,1,0,0,15h34.63v26.5a7.52,7.52,0,0,1-7.5,7.5H180a7.51,7.51,0,0,1-7.5-7.5V203.54a7.5,7.5,0,0,0-15,0V507.27a22.53,22.53,0,0,0,22.5,22.5H398a22.53,22.53,0,0,0,22.5-22.5v-26.5h15v31.5a32.54,32.54,0,0,1-32.5,32.5H175a32.54,32.54,0,0,1-32.5-32.5v-417A32.54,32.54,0,0,1,175,62.77H403a32.54,32.54,0,0,1,32.5,32.5V362.82h-15V100.27A22.53,22.53,0,0,0,398,77.77H370.4a15.51,15.51,0,0,0-15.5,15.5,6,6,0,0,1-6,6H229a6,6,0,0,1-6-6,15.48,15.48,0,0,0-15.5-15.5H180a22.52,22.52,0,0,0-22.5,22.5v68.27a7.5,7.5,0,1,0,15,0V100.27a7.5,7.5,0,0,1,7.5-7.5H207.5a.48.48,0,0,1,.35.14.49.49,0,0,1,.15.36,21,21,0,0,0,21,21H348.88a21,21,0,0,0,21-21,.5.5,0,0,1,.5-.5H398a7.51,7.51,0,0,1,7.5,7.5V362.82H264.74a23.52,23.52,0,0,0-23.5,23.5v70.95a23.52,23.52,0,0,0,23.5,23.5h71.08a7.5,7.5,0,0,0,0-15H264.74a8.51,8.51,0,0,1-8.5-8.5V386.32a8.51,8.51,0,0,1,8.5-8.5H521.45a8.51,8.51,0,0,1,8.5,8.5ZM210,204.4a7.5,7.5,0,0,0,7.5-7.5V172.27h24.63a7.5,7.5,0,0,0,0-15H217a14.51,14.51,0,0,0-14.5,14.5V196.9A7.49,7.49,0,0,0,210,204.4Zm39.63,118.37a7.5,7.5,0,0,0-7.5-7.5H217.45V290.63a7.5,7.5,0,0,0-15,0v25.14a14.52,14.52,0,0,0,14.5,14.5h25.13A7.5,7.5,0,0,0,249.58,322.77Z"/><text class="cls-3" transform="translate(259.58 447.65)">T<tspan class="cls-4" x="60.24" y="0">A</tspan><tspan class="cls-5" x="136.48" y="0">R</tspan><tspan class="cls-4" x="207.04" y="0">A</tspan></text><path class="cls-2" d="M330.67,214.08a1.78,1.78,0,0,0-1.78,1.78V296a.12.12,0,0,1-.13.12h-63a1.79,1.79,0,0,0,0,3.57h63a3.7,3.7,0,0,0,3.7-3.69V215.86A1.79,1.79,0,0,0,330.67,214.08Z"/><path class="cls-2" d="M336.4,193.09H320l-6-6a5.59,5.59,0,0,0-4-1.64H248.62a3.7,3.7,0,0,0-3.69,3.7V296a3.69,3.69,0,0,0,3.69,3.69h3.94v3.94a3.69,3.69,0,0,0,3.69,3.69H336.4a3.69,3.69,0,0,0,3.69-3.69V196.78A3.69,3.69,0,0,0,336.4,193.09Zm-24.93-3.45,16.8,16.8H311.59a.12.12,0,0,1-.12-.12Zm25,114a.12.12,0,0,1-.12.12H256.25a.12.12,0,0,1-.12-.12V299.7h2a1.79,1.79,0,0,0,0-3.57h-9.54a.12.12,0,0,1-.12-.12V189.15a.12.12,0,0,1,.12-.13H307.9v17.3a3.69,3.69,0,0,0,3.69,3.69h19.08a1.79,1.79,0,0,0,1.79-1.78v-.33a5.57,5.57,0,0,0-1.64-4l-7.29-7.28H336.4a.12.12,0,0,1,.12.12V303.64Z"/><path class="cls-2" d="M280.41,205.85a1.77,1.77,0,0,0-2.52,0L267.79,216a.13.13,0,0,1-.18,0l-4-4h3.1a1.79,1.79,0,0,0,0-3.57H262a3.76,3.76,0,0,0-1.6.37l-1-1a1.78,1.78,0,1,0-2.52,2.52l1.4,1.41c0,.11,0,.23,0,.36v11.44a3.7,3.7,0,0,0,3.7,3.7h11.45a3.7,3.7,0,0,0,3.69-3.7V211.67l3.29-3.3A1.77,1.77,0,0,0,280.41,205.85Zm-6.86,17.64a.13.13,0,0,1-.12.13H262a.13.13,0,0,1-.13-.13v-8.25l3.24,3.23a3.69,3.69,0,0,0,5.22,0l3.24-3.23v8.25Z"/><path class="cls-2" d="M273.43,233.16H262a3.7,3.7,0,0,0-3.7,3.69V248.3A3.7,3.7,0,0,0,262,252h11.45a3.7,3.7,0,0,0,3.69-3.7V236.85A3.7,3.7,0,0,0,273.43,233.16Zm.12,15.14a.12.12,0,0,1-.12.12H262a.12.12,0,0,1-.13-.12V236.85a.12.12,0,0,1,.13-.12h11.45a.12.12,0,0,1,.12.12Z"/><path class="cls-2" d="M273.43,258H262a3.7,3.7,0,0,0-3.7,3.69v11.45a3.7,3.7,0,0,0,3.7,3.69h11.45a3.7,3.7,0,0,0,3.69-3.69V261.66A3.69,3.69,0,0,0,273.43,258Zm.12,15.14a.12.12,0,0,1-.12.12H262a.12.12,0,0,1-.13-.12V261.66a.12.12,0,0,1,.13-.12h11.45a.12.12,0,0,1,.12.12Z"/><path class="cls-2" d="M302.05,212.17H284.88a1.79,1.79,0,1,0,0,3.57h17.17a1.79,1.79,0,0,0,0-3.57Z"/><path class="cls-2" d="M317.32,219.8H284.88a1.79,1.79,0,1,0,0,3.57h32.44a1.79,1.79,0,0,0,0-3.57Z"/><path class="cls-2" d="M302.05,237H284.88a1.79,1.79,0,1,0,0,3.57h17.17a1.79,1.79,0,0,0,0-3.57Z"/><path class="cls-2" d="M317.32,244.61H284.88a1.79,1.79,0,1,0,0,3.57h32.44a1.79,1.79,0,0,0,0-3.57Z"/><path class="cls-2" d="M302.05,261.78H284.88a1.79,1.79,0,1,0,0,3.57h17.17a1.79,1.79,0,0,0,0-3.57Z"/><path class="cls-2" d="M317.32,269.41H284.88a1.79,1.79,0,0,0,0,3.58h32.44a1.79,1.79,0,0,0,0-3.58Z"/></svg>