<svg id="Layer_1" data-name="Layer 1" xmlns="http://www.w3.org/2000/svg" xmlns:xlink="http://www.w3.org/1999/xlink" viewBox="0 0 595.25 615.88"><defs><style>.cls-1{opacity:0.2;fill:url(#linear-gradient);}.cls-2{fill:#12324f;}</style><linearGradient id="linear-gradient" x1="605.61" y1="118.39" x2="-3.55" y2="486.44" gradientTransform="translate(384.15 -68.99) rotate(56.18)" gradientUnits="userSpaceOnUse"><stop offset="0.25" stop-color="#95c8d7"/><stop offset="0.99" stop-color="#4682b4"/></linearGradient></defs><title>sinav_hazirla</title><path class="cls-1" d="M292.28,11.7c-31-7.92-56.62-.71-56.62-.71h0A215.7,215.7,0,0,0,192,27.93C173.51,37.7,161.33,48.13,148.66,59c-2.82,2.41-12.26,10.58-23.79,22.55-4.91,5.1-20.28,21.16-32.81,39.16-7.51,10.78-31.28,45.41-38.41,94.87-3.43,23.8-1.69,41.5,1.29,71.77,4.81,48.91,12.26,51.27,14.37,90.25.92,17.18,2.39,47.23-6.9,83.54-3.83,15-7.51,26.39-10.77,35.37C41.28,525.08,40,525.91,39.53,532.84c-1.69,25,23.08,53.27,48.87,62.84,31.65,11.73,62.64-5.53,94.3-20.63,121.36-57.89,128.73-24.92,246.06-86,64.2-33.44,96.81-51,122.29-90.79,38.77-60.6,32.34-126.35,30.94-138.5C582,259.74,561.43,80.6,292.28,11.7Z"/><path class="cls-2" d="M426.37,95.83H146.78a35.64,35.64,0,0,0-35.61,35.61V518.13a35.64,35.64,0,0,0,35.61,35.61H426.37A35.64,35.64,0,0,0,462,518.13V131.44A35.64,35.64,0,0,0,426.37,95.83Zm15.57,422.3a15.58,15.58,0,0,1-15.57,15.57H146.78a15.58,15.58,0,0,1-15.57-15.57V131.44a15.58,15.58,0,0,1,15.57-15.57H426.37a15.58,15.58,0,0,1,15.57,15.57Z"/><path class="cls-2" d="M369.15,170.38c2.58,0,5.17,0,7.78,0,5.42,0,10.9,0,16.35-.11a6,6,0,0,0-.16-12c-8,.11-16,.14-23.89.09h0a6,6,0,0,0,0,12Z"/><path class="cls-2" d="M249.28,170.42h21c19.79,0,37,0,53.2-.1a6,6,0,0,0,0-12h0c-21.58.09-45.12.11-74.09.08h0a6,6,0,0,0,0,12Z"/><path class="cls-2" d="M179.48,170.29q21.9.08,43.8.1h0a6,6,0,0,0,0-12q-21.9,0-43.79-.09h0a6,6,0,0,0,0,12Z"/><path class="cls-2" d="M393.2,254.46H231a6,6,0,0,0,0,12H393.2a6,6,0,0,0,0-12Z"/><path class="cls-2" d="M393.2,209.49H172a6,6,0,0,0,0,12H393.2a6,6,0,1,0,0-12Z"/><path class="cls-2" d="M179.64,279.9H191.2a13.66,13.66,0,0,0,13.65-13.65V254.69A13.67,13.67,0,0,0,191.2,241H179.64A13.68,13.68,0,0,0,166,254.69v11.56A13.67,13.67,0,0,0,179.64,279.9ZM178,254.69a1.65,1.65,0,0,1,1.64-1.64H191.2a1.64,1.64,0,0,1,1.63,1.64v11.56a1.63,1.63,0,0,1-1.63,1.63H179.64a1.64,1.64,0,0,1-1.64-1.63V254.69Z"/><path class="cls-2" d="M393.2,296.58H231a6,6,0,0,0,0,12H393.2a6,6,0,1,0,0-12Z"/><path class="cls-2" d="M179.64,322H191.2a13.67,13.67,0,0,0,13.65-13.66V296.81a13.66,13.66,0,0,0-13.65-13.65H179.64A13.67,13.67,0,0,0,166,296.81v11.56A13.68,13.68,0,0,0,179.64,322ZM178,296.81a1.64,1.64,0,0,1,1.64-1.63H191.2a1.63,1.63,0,0,1,1.63,1.63v11.56A1.64,1.64,0,0,1,191.2,310H179.64a1.65,1.65,0,0,1-1.64-1.64V296.81Z"/><path class="cls-2" d="M393.2,393.2H231a6,6,0,0,0,0,12H393.2a6,6,0,1,0,0-12Z"/><path class="cls-2" d="M393.2,348.24H172a6,6,0,0,0,0,12H393.2a6,6,0,1,0,0-12Z"/><path class="cls-2" d="M191.2,379.78H179.64A13.67,13.67,0,0,0,166,393.43V405a13.68,13.68,0,0,0,13.66,13.66H191.2A13.67,13.67,0,0,0,204.85,405V393.43a13.66,13.66,0,0,0-13.65-13.65ZM192.83,405a1.64,1.64,0,0,1-1.63,1.64H179.64A1.65,1.65,0,0,1,178,405V393.43a1.64,1.64,0,0,1,1.64-1.63H191.2a1.63,1.63,0,0,1,1.63,1.63Z"/><path class="cls-2" d="M393.2,435.32H231a6,6,0,0,0,0,12H393.2a6,6,0,0,0,0-12Z"/><path class="cls-2" d="M191.2,421.9H179.64A13.68,13.68,0,0,0,166,435.56v11.56a13.67,13.67,0,0,0,13.66,13.65H191.2a13.66,13.66,0,0,0,13.65-13.65V435.56A13.67,13.67,0,0,0,191.2,421.9Zm1.63,25.22a1.63,1.63,0,0,1-1.63,1.63H179.64a1.64,1.64,0,0,1-1.64-1.63V435.56a1.64,1.64,0,0,1,1.64-1.64H191.2a1.63,1.63,0,0,1,1.63,1.64Z"/><path class="cls-2" d="M393.2,477.45H231a6,6,0,0,0,0,12H393.2a6,6,0,1,0,0-12Z"/><path class="cls-2" d="M191.2,464H179.64A13.68,13.68,0,0,0,166,477.68v11.56a13.68,13.68,0,0,0,13.66,13.66H191.2a13.67,13.67,0,0,0,13.65-13.66V477.68A13.67,13.67,0,0,0,191.2,464Zm1.63,25.22a1.63,1.63,0,0,1-1.63,1.63H179.64a1.64,1.64,0,0,1-1.64-1.63V477.68a1.64,1.64,0,0,1,1.64-1.63H191.2a1.63,1.63,0,0,1,1.63,1.63Z"/><circle class="cls-2" cx="121.2" cy="50.37" r="7.87"/><path class="cls-2" d="M60.28,81.38l6.31,17.75a2.81,2.81,0,0,0,1.48,1.66l15.77,7.11a3.15,3.15,0,0,1,0,5.56l-15.77,7.1a2.83,2.83,0,0,0-1.48,1.67L60.28,140a2.56,2.56,0,0,1-4.94,0L49,122.23a2.86,2.86,0,0,0-1.48-1.67l-15.77-7.1a3.15,3.15,0,0,1,0-5.56l15.77-7.11A2.84,2.84,0,0,0,49,99.13l6.31-17.75A2.56,2.56,0,0,1,60.28,81.38Z"/><path class="cls-2" d="M507.43,45.06,516.11,69a3.87,3.87,0,0,0,2,2.25l21.67,9.57a4.2,4.2,0,0,1,0,7.49l-21.67,9.58a3.84,3.84,0,0,0-2,2.25l-8.68,23.93a3.53,3.53,0,0,1-6.78,0L492,100.13a3.85,3.85,0,0,0-2-2.25L468.28,88.3a4.2,4.2,0,0,1,0-7.49l21.66-9.57A3.88,3.88,0,0,0,492,69l8.67-23.93A3.53,3.53,0,0,1,507.43,45.06Z"/></svg>