<?xml version="1.0" encoding="iso-8859-1"?>
<!-- Generator: Adobe Illustrator 19.0.0, SVG Export Plug-In . SVG Version: 6.00 Build 0)  -->
<svg version="1.1" id="Capa_1" xmlns="http://www.w3.org/2000/svg" xmlns:xlink="http://www.w3.org/1999/xlink" x="0px" y="0px"
	 viewBox="0 0 511.096 511.096" enable-background="new 0 0 511.096 511.096" xml:space="preserve"><g><g><path d="m499.23 155.146c-6.6-6.6-14.999-10.328-23.634-11.184.702-2.951 1.063-6.008 1.063-9.124 0-10.414-4.034-20.183-11.359-27.508-6.519-6.518-14.791-10.235-23.313-11.151 3.248-12.856-.146-27.06-10.185-37.098-10.038-10.038-24.242-13.434-37.099-10.184-.916-8.521-4.633-16.795-11.15-23.313-7.324-7.325-17.094-11.359-27.507-11.359-.001 0 0 0-.001 0-10.413 0-20.183 4.034-27.507 11.358l-9.639 9.638c-31.497-9.893-65.197-13.323-98.115-10.007-9.171-8.094-19.684-15.235-31.495-20.062-33.897-13.854-49.398 3.986-53.341 9.784-7.204 10.595-7.781 24.644-2.286 36.069-8.471 4.369-16.71 9.24-24.59 14.561-4.577 3.091-5.781 9.307-2.69 13.884 1.932 2.861 5.085 4.404 8.296 4.404 1.926 0 3.872-.555 5.588-1.714 8.293-5.601 17.021-10.658 26.007-15.096 15.123 17.328 37.894 49.397 32.085 80.189-3.976 21.07-3.114 41.407-2.142 61.094-1.283-.161-2.583-.251-3.898-.251-8.214 0-15.921 3.184-21.701 8.964l-118.683 118.684c-20.097-63.542-11.544-134.816 27.684-192.911 3.091-4.577 1.886-10.793-2.691-13.884s-10.793-1.886-13.884 2.691c-65.186 96.538-52.631 226.473 29.853 308.957 46.097 46.096 107.385 71.482 172.575 71.482s126.479-25.386 172.574-71.482c56.945-56.945 81.955-137.604 67.461-216.691l13.724-13.724c15.168-15.168 15.168-39.848 0-55.016zm-196.493-103.759-36.51 36.509c-.096-.207-.195-.425-.3-.656-1.624-3.608-10.837-23.281-27.117-43.169 21.518-.615 43.148 1.863 63.927 7.316zm-137.978 179.796c2.003-2.003 4.688-3.106 7.56-3.106 2.871 0 5.556 1.103 7.559 3.106l127.459 127.458.005.005.002.002c4.165 4.169 4.166 10.95-.002 15.117l-37.875 37.875-142.583-142.582zm-125.161 125.161 73.143-73.143 142.583 142.581-60.541 60.541c-40.484-9.318-77.645-29.788-107.746-59.889-20.629-20.629-36.483-44.495-47.439-70.09zm364.304 70.091c-42.318 42.319-98.584 65.625-158.432 65.625-8.952 0-17.821-.533-26.577-1.561l102.591-102.591c9.354-9.354 11.395-23.293 6.125-34.649 8.891-6.961 19.794-12.383 31.211-18.056 15.016-7.46 30.543-15.175 42.581-27.212l66.527-66.527c8.13 68.042-15.098 136.043-64.026 184.971zm81.185-230.416-97.828 97.828c-9.725 9.725-23.137 16.389-37.337 23.444-12.055 5.99-24.436 12.148-35.08 20.57l-118.057-118.054c-.154-3.608-.331-7.181-.504-10.666-.991-19.962-1.928-38.816 1.73-58.198 8.42-44.63-27.669-88.02-43.575-104.604-5.137-5.355-5.992-14.209-1.948-20.158 4.893-7.194 15.548-8.11 29.235-2.516 40.783 16.669 64.956 69.54 65.966 71.783 3.704 8.228 6.783 11.637 12.676 14.031.66.268.994.407 1.388.637 3.922 2.285 8.896 1.644 12.108-1.568l68.821-68.821c3.547-3.547 8.293-5.5 13.364-5.5s9.818 1.954 13.365 5.502c7.37 7.369 7.37 19.36.001 26.73-3.905 3.905-3.905 10.237 0 14.142 3.906 3.905 10.238 3.905 14.143 0l7.375-7.375c7.369-7.37 19.361-7.37 26.73 0 7.37 7.369 7.37 19.361.001 26.73l-7.376 7.375h-.001c-3.905 3.905-3.905 10.237 0 14.142 3.903 3.906 10.236 3.907 14.142.001h.001c7.369-7.368 19.361-7.37 26.73 0 3.548 3.547 5.501 8.294 5.501 13.365s-1.953 9.817-5.501 13.365l-6.943 6.943c-3.905 3.905-3.905 10.237 0 14.142 3.906 3.906 10.236 3.906 14.143 0l.025-.026c3.545-3.531 8.281-5.476 13.34-5.476 5.071 0 9.818 1.954 13.365 5.501 3.548 3.547 5.501 8.294 5.501 13.365s-1.953 9.819-5.501 13.366z"/><path d="m164.088 274.954c1.916 1.742 4.322 2.6 6.723 2.6 2.721 0 5.433-1.104 7.406-3.275 3.715-4.086 3.414-10.411-.673-14.126s-10.41-3.415-14.126.673l-.005.005c-3.714 4.086-3.411 10.408.675 14.123z"/><path d="m79.966 112.499c5.522 0 10-4.477 10-10s-4.478-10-10-10h-.007c-5.522 0-9.996 4.477-9.996 10s4.481 10 10.003 10z"/></g></g></svg>